<svg version="1.1" id="Layer_1" xmlns="http://www.w3.org/2000/svg" xmlns:xlink="http://www.w3.org/1999/xlink" x="0px" y="0px"
	 width="100%" viewBox="0 0 270 34" xml:space="preserve">
<path fill="#F13024" opacity="1.000000" stroke="none" 
	d="
M1531.000000,285.000000 
	C1020.720459,285.000000 510.940979,285.000000 1.080727,285.000000 
	C1.080727,190.397202 1.080727,95.794319 1.080727,1.095716 
	C694.333313,1.095716 1387.666626,1.095716 2080.970459,1.095716 
	C2080.970459,95.725967 2080.970459,190.362991 2080.970459,285.000000 
	C1897.793945,285.000000 1714.646973,285.000000 1531.000000,285.000000 
M1188.497314,208.010956 
	C1196.279053,206.923813 1204.060791,205.836655 1212.430420,204.667374 
	C1211.489624,197.298538 1210.776978,190.419556 1209.575317,183.627060 
	C1209.383301,182.541183 1206.878906,180.941010 1205.651367,181.107895 
	C1195.892700,182.434601 1186.196289,184.210678 1176.456909,185.691635 
	C1166.541748,187.199310 1156.592407,188.481613 1146.670654,189.948349 
	C1136.753662,191.414383 1126.857544,193.021606 1116.942627,194.502045 
	C1107.755859,195.873779 1098.556274,197.159775 1089.145264,198.514801 
	C1088.736084,193.148727 1088.308472,188.382355 1088.020264,183.607559 
	C1086.992920,166.590332 1085.920898,149.574951 1085.049561,132.549469 
	C1084.523926,122.277374 1084.482056,111.980530 1083.955200,101.708527 
	C1083.515137,93.128487 1082.545776,84.575996 1082.081787,75.996651 
	C1081.799072,70.771690 1082.029541,65.518974 1082.029541,60.450279 
	C1097.304565,59.266563 1111.681641,58.081398 1126.070312,57.058884 
	C1138.574951,56.170273 1151.102295,55.587856 1163.598267,54.600327 
	C1167.057983,54.326908 1167.406860,55.508358 1166.337524,58.177105 
	C1162.169800,68.579834 1157.932373,78.954956 1153.809204,89.375252 
	C1150.753052,97.098946 1147.833374,104.876648 1144.707153,113.009888 
	C1152.876465,115.773941 1160.334961,118.462227 1167.931274,120.677597 
	C1168.985596,120.985077 1171.457153,119.274536 1172.020142,117.961304 
	C1175.538818,109.753250 1178.699219,101.391647 1181.982666,93.082695 
	C1189.641113,73.703171 1197.330566,54.335854 1204.941284,34.937649 
	C1206.812256,30.168949 1205.636841,28.617916 1200.909790,29.012285 
	C1189.102173,29.997370 1177.299683,31.074183 1165.478149,31.855803 
	C1147.865601,33.020313 1130.242554,34.039360 1112.616211,34.975166 
	C1098.404663,35.729675 1084.177490,36.187962 1069.966309,36.947109 
	C1064.746704,37.225929 1059.553101,37.991005 1054.001099,38.570446 
	C1054.001099,40.123508 1053.931885,41.600380 1054.011963,43.069111 
	C1054.651978,54.805279 1055.424561,66.535255 1055.949097,78.276382 
	C1056.430542,89.052620 1056.634888,99.841019 1056.997314,110.622849 
	C1057.309570,119.905861 1057.540039,129.194336 1058.041626,138.467667 
	C1058.934326,154.971359 1060.144897,171.458542 1060.953003,187.965836 
	C1061.521118,199.569641 1061.636353,211.195526 1061.981934,222.810699 
	C1062.000488,223.432159 1062.281982,224.045761 1062.545044,225.066727 
	C1071.492798,223.979813 1080.324097,223.043762 1089.113525,221.809143 
	C1104.460571,219.653412 1119.768433,217.219513 1135.117188,215.076508 
	C1152.598511,212.635712 1170.106689,210.385757 1188.497314,208.010956 
M1602.000000,205.504059 
	C1602.000000,212.251419 1602.000000,218.998764 1602.000000,225.615997 
	C1610.740234,225.615997 1618.653198,225.615997 1626.074829,225.615997 
	C1626.074829,212.642120 1626.213379,200.056458 1626.038330,187.475143 
	C1625.837158,173.023499 1625.359863,158.575668 1624.999512,144.126266 
	C1624.668335,130.842163 1624.260986,117.559494 1624.016479,104.273804 
	C1623.621826,82.825729 1623.388550,61.374630 1622.968872,39.927120 
	C1622.829468,32.805355 1622.471558,25.678123 1621.855591,18.584436 
	C1621.745605,17.319304 1619.920044,15.230962 1618.813965,15.182557 
	C1611.715210,14.871896 1604.596069,15.023941 1596.541626,15.023941 
	C1597.048584,24.014727 1597.679321,32.404343 1597.959595,40.805645 
	C1598.425049,54.751606 1598.529297,68.710403 1599.075073,82.652466 
	C1599.261230,87.409531 1597.091064,88.405403 1593.038696,87.986206 
	C1582.889404,86.936317 1572.724854,86.032410 1562.577271,84.967445 
	C1557.507812,84.435417 1552.471069,83.590942 1547.402588,83.046478 
	C1541.180786,82.378113 1534.947021,81.766441 1528.702148,81.427132 
	C1527.834106,81.379967 1526.206055,82.936813 1526.071411,83.909225 
	C1525.484009,88.151398 1525.374390,92.457024 1524.987061,96.730156 
	C1524.317627,104.113106 1523.634766,111.495926 1522.841919,118.866356 
	C1521.611694,130.303299 1520.248657,141.725952 1519.011230,153.162170 
	C1518.230957,160.372528 1517.663940,167.606415 1516.845947,174.812134 
	C1515.622314,185.592117 1514.215820,196.351318 1512.987061,207.130737 
	C1512.587891,210.632004 1512.501831,214.168961 1512.258545,217.905197 
	C1522.845093,218.968933 1533.013428,220.047256 1543.193481,220.999893 
	C1557.495605,222.338272 1571.801025,223.655319 1586.123291,224.741058 
	C1587.360107,224.834808 1589.674194,223.317413 1589.884521,222.236588 
	C1590.953247,216.740387 1591.678101,211.154099 1592.062500,205.567581 
	C1592.139038,204.454178 1590.301636,202.270996 1589.185669,202.156860 
	C1576.083618,200.816986 1562.949341,199.795807 1549.827393,198.646835 
	C1546.632568,198.367081 1543.451538,197.928284 1539.713501,197.499451 
	C1540.882935,184.391632 1541.914185,171.726135 1543.165894,159.082443 
	C1544.694336,143.643997 1546.556396,128.237213 1547.940308,112.786819 
	C1548.302246,108.745720 1549.162109,106.590424 1553.741333,106.970657 
	C1567.585205,108.120155 1581.452271,108.985367 1595.298828,110.104721 
	C1598.537109,110.366501 1600.045166,112.218414 1600.081177,115.803253 
	C1600.194336,127.089691 1600.739136,138.370956 1600.983032,149.657120 
	C1601.378052,167.939011 1601.666504,186.223221 1602.000000,205.504059 
M205.167160,190.854721 
	C205.779053,186.280838 206.501663,181.718521 206.980576,177.130768 
	C208.095428,166.451126 208.979340,155.746597 210.166412,145.075485 
	C211.680222,131.467255 213.437622,117.886299 215.020615,104.285515 
	C216.355698,92.814835 217.412582,81.308815 218.934448,69.863892 
	C219.952179,62.210251 219.207245,60.606068 211.957321,57.850567 
	C194.896149,51.366089 177.903946,44.697990 160.800156,38.328876 
	C152.645660,35.292305 144.406998,30.908062 136.017715,30.427197 
	C121.761818,29.610062 107.343941,31.206991 93.018906,32.161324 
	C84.319176,32.740894 75.672043,34.078449 66.989998,34.964951 
	C59.448322,35.735004 51.866989,36.175678 44.363281,37.201546 
	C43.088524,37.375828 41.195839,39.749985 41.169933,41.137333 
	C41.074745,46.235607 41.926289,51.349049 41.876633,56.451481 
	C41.837177,60.506088 43.643238,61.232399 47.125347,60.867783 
	C57.097767,59.823563 67.092461,58.993973 77.069405,57.990620 
	C87.584198,56.933170 98.178375,56.295059 108.572266,54.509670 
	C118.919624,52.732273 129.107590,52.515465 138.835464,56.200661 
	C155.386108,62.470520 171.688950,69.404099 187.978241,76.335342 
	C189.245300,76.874489 190.340790,79.629738 190.235580,81.273003 
	C189.731018,89.152641 188.764908,97.002052 188.002808,104.866081 
	C187.255692,112.575348 186.639267,120.298096 185.817352,127.999107 
	C184.613556,139.278305 183.247025,150.540024 182.009766,161.815765 
	C181.273834,168.522644 180.893082,175.281662 179.798965,181.926086 
	C179.548004,183.450089 177.200638,185.395065 175.508514,185.777817 
	C169.424286,187.154099 163.212387,187.974976 157.040024,188.950882 
	C137.877182,191.980637 118.702965,194.939423 99.551491,198.039047 
	C95.822136,198.642654 94.358780,200.794556 95.267326,204.858887 
	C96.230339,209.166840 96.903725,213.655319 96.820663,218.048248 
	C96.740250,222.300217 98.517464,223.501038 102.170799,222.931458 
	C106.896690,222.194672 111.579231,221.183975 116.298286,220.398514 
	C135.183563,217.255188 154.073715,214.141006 172.966278,211.041702 
	C181.600006,209.625351 190.276245,208.435684 198.857132,206.754776 
	C200.750900,206.383820 203.369064,204.666122 203.829025,203.049423 
	C204.850159,199.460419 204.714966,195.542404 205.167160,190.854721 
M1851.059326,197.556580 
	C1850.718140,189.662857 1849.921387,188.907394 1843.748535,189.875839 
	C1832.543823,191.633698 1821.316040,193.242447 1810.104370,194.956512 
	C1796.619141,197.018173 1783.072632,198.776840 1769.694702,201.392944 
	C1764.740723,202.361740 1764.165649,200.318237 1764.024414,196.718872 
	C1763.900635,193.559875 1764.108154,190.380020 1763.849854,187.235626 
	C1762.984985,176.707809 1761.922485,166.196335 1761.037720,155.670029 
	C1760.000244,143.323761 1759.022339,130.971924 1758.126099,118.614723 
	C1757.902710,115.534927 1758.092651,112.425156 1758.092651,109.007172 
	C1776.507690,107.175743 1794.270996,105.409134 1812.688354,103.577484 
	C1811.690063,113.931679 1810.607666,122.910103 1810.013306,131.920715 
	C1809.349365,141.989334 1809.542236,142.002060 1799.547119,142.002060 
	C1796.881470,142.002060 1794.215942,142.002060 1791.550293,142.002060 
	C1785.792114,142.002060 1780.033813,142.002060 1774.300903,142.002060 
	C1774.300903,149.693268 1774.300903,156.613998 1774.300903,163.975052 
	C1793.383911,163.975052 1812.170898,164.041046 1830.953979,163.796738 
	C1831.985107,163.783310 1833.744385,161.256241 1833.877075,159.783264 
	C1835.092773,146.283554 1835.961914,132.753159 1837.065918,119.242645 
	C1837.535767,113.492432 1838.481812,107.780403 1838.925293,102.028954 
	C1839.479858,94.836166 1839.739868,87.620659 1840.199829,79.059395 
	C1803.625122,82.476646 1768.081299,85.797592 1731.612549,89.204941 
	C1732.090088,95.249352 1732.563110,100.950523 1732.986694,106.655357 
	C1734.000000,120.304047 1735.002808,133.953537 1735.985596,147.604431 
	C1737.004028,161.751404 1738.052246,175.896606 1738.977661,190.049759 
	C1739.721069,201.421646 1740.401123,212.799927 1740.888672,224.184830 
	C1741.028442,227.451157 1742.643921,228.334503 1745.340820,227.923203 
	C1759.355957,225.785873 1773.346680,223.485428 1787.366333,221.378708 
	C1799.760254,219.516266 1812.188232,217.880798 1824.588013,216.056030 
	C1833.830078,214.695938 1843.051147,213.193695 1852.578247,211.708542 
	C1852.018799,206.906647 1851.526245,202.679535 1851.059326,197.556580 
M1328.399658,85.001587 
	C1319.122925,85.001587 1309.846069,85.001587 1300.395386,85.001587 
	C1300.395386,92.900284 1300.395386,100.262604 1300.395386,108.023941 
	C1302.928955,108.023941 1305.070435,108.053368 1307.210815,108.019379 
	C1328.276245,107.684868 1349.341431,107.329346 1370.406982,107.005974 
	C1375.027466,106.935051 1379.871094,107.839493 1384.215210,106.734467 
	C1389.765503,105.322617 1390.239990,107.632919 1390.013794,111.890518 
	C1389.276489,125.772346 1388.584595,139.656784 1387.932739,153.542892 
	C1387.241211,168.270615 1386.342285,182.997116 1386.110474,197.733231 
	C1386.030396,202.820648 1383.831299,204.026169 1379.614990,204.002441 
	C1375.159546,203.977371 1370.703979,203.967880 1366.248535,203.965179 
	C1357.309082,203.959732 1348.369751,203.963547 1339.386108,203.963547 
	C1338.337402,197.150070 1337.358521,190.990204 1336.446777,184.820435 
	C1334.956299,174.735641 1333.467285,164.650299 1332.056152,154.554199 
	C1330.645264,144.460480 1329.436523,134.337082 1327.897827,124.263573 
	C1327.516479,121.766731 1326.161011,119.482193 1322.834961,119.963257 
	C1317.955688,120.668968 1313.039795,121.174774 1308.202515,122.097153 
	C1305.021118,122.703812 1302.256348,123.810226 1303.033813,128.305740 
	C1305.492065,142.519165 1307.739380,156.770233 1309.948364,171.025330 
	C1312.685181,188.685867 1315.445557,206.345474 1317.848633,224.052612 
	C1318.326416,227.573563 1319.872192,228.179199 1322.693970,227.992706 
	C1332.549927,227.341339 1342.397827,226.521820 1352.262573,226.056335 
	C1369.063110,225.263580 1385.871582,224.609650 1402.682129,224.064758 
	C1409.571899,223.841431 1409.730957,223.721115 1410.035034,216.809662 
	C1410.566284,204.738846 1411.356445,192.679672 1411.971802,180.612213 
	C1413.009521,160.267456 1414.003174,139.920410 1414.999512,119.573547 
	C1415.477539,109.810417 1415.632568,100.020134 1416.492920,90.291588 
	C1416.960083,85.008492 1416.696533,83.930153 1411.405273,84.026184 
	C1396.964478,84.288284 1382.527466,84.783821 1368.086060,84.967072 
	C1355.179932,85.130852 1342.270142,85.001564 1328.399658,85.001587 
M700.066589,153.592560 
	C698.740967,144.323898 697.342773,135.064697 696.131287,125.781151 
	C695.737854,122.766495 694.948425,120.668846 691.321960,120.980331 
	C686.224609,121.418159 681.050537,121.346107 676.042114,122.237740 
	C674.173645,122.570374 671.159973,125.120010 671.264954,126.454437 
	C671.855469,133.957382 673.221252,141.400513 674.353577,148.859329 
	C675.879333,158.909744 677.444641,168.954147 678.972229,179.004288 
	C680.868958,191.482773 682.690308,203.973053 684.662476,216.439514 
	C685.242981,220.109207 685.083008,225.201889 687.340942,226.936111 
	C689.636108,228.698929 694.496765,227.141312 698.232788,227.004944 
	C716.373169,226.342789 734.514099,225.694565 752.652832,224.988953 
	C760.681091,224.676620 768.704529,224.240219 776.748169,223.859299 
	C777.220398,221.697647 777.854980,219.941406 777.955688,218.155060 
	C779.017883,199.313126 780.074585,180.470184 780.971375,161.619843 
	C781.759094,145.064911 782.245117,128.495483 783.056396,111.941864 
	C783.435974,104.196739 784.307861,96.476723 784.876526,88.739441 
	C785.109863,85.564240 783.915405,83.811737 780.292175,83.956596 
	C768.854248,84.413887 757.409851,84.872086 745.965149,84.956764 
	C725.730286,85.106499 705.492615,84.878334 685.257935,85.037918 
	C679.687805,85.081848 674.124084,85.939751 668.024170,86.470566 
	C668.024170,92.691399 667.874573,98.813309 668.165710,104.914177 
	C668.216553,105.979622 670.106995,107.822006 671.173889,107.840958 
	C682.286255,108.038315 693.405090,108.034042 704.519775,107.894226 
	C721.588074,107.679512 738.654114,107.267838 755.722656,107.141869 
	C756.639771,107.135094 758.411316,109.030113 758.369568,109.977432 
	C757.713501,124.855606 756.722046,139.718704 756.023682,154.595413 
	C755.518066,165.366058 755.437439,176.156418 754.954895,186.928482 
	C754.720032,192.171616 753.999390,197.393005 753.433899,203.300690 
	C738.002075,203.300690 722.691345,203.300690 707.243347,203.300690 
	C704.839539,186.997192 702.442749,170.741898 700.066589,153.592560 
M1984.066895,153.478683 
	C1993.204712,160.068649 2002.382202,166.605103 2011.432251,173.313492 
	C2012.620239,174.194031 2013.816406,175.925140 2013.878906,177.313141 
	C2014.147339,183.272446 2013.993286,189.250778 2013.993286,195.725662 
	C2002.202515,197.504288 1990.753174,199.319702 1979.276001,200.938995 
	C1966.755005,202.705566 1954.192749,204.188507 1941.694824,206.098328 
	C1940.310669,206.309814 1938.121582,208.575638 1938.196655,209.770004 
	C1938.554688,215.473480 1939.438232,221.159439 1940.476685,226.788589 
	C1940.638794,227.667465 1942.647827,228.935028 1943.659058,228.814621 
	C1953.316284,227.664536 1962.947754,226.290695 1972.576538,224.910843 
	C1992.964233,221.989197 2013.332275,218.923767 2033.742188,216.168243 
	C2037.638550,215.642197 2039.306763,214.380600 2039.142822,210.280334 
	C2038.618286,197.169022 2038.453613,184.043427 2037.942749,170.931412 
	C2037.746094,165.883774 2036.142944,161.811462 2031.341064,158.579697 
	C2012.503784,145.901840 1994.001343,132.725128 1975.450073,119.626755 
	C1973.916992,118.544373 1972.951538,116.658340 1971.226196,114.535179 
	C1978.132324,113.217964 1983.772339,112.035355 1989.450562,111.079437 
	C2005.865479,108.316017 2022.306396,105.705070 2038.701416,102.830986 
	C2040.168335,102.573830 2042.595215,100.729691 2042.510132,99.814392 
	C2041.895630,93.195854 2040.748901,86.626755 2039.634399,79.124153 
	C2023.233765,81.973686 2007.568237,84.668251 1991.913330,87.423576 
	C1977.882324,89.893097 1963.860718,92.415237 1949.840332,94.944786 
	C1945.410889,95.743958 1940.808472,96.030945 1939.799561,102.094376 
	C1939.328003,104.928436 1937.687622,107.638329 1936.254395,110.225899 
	C1933.964966,114.359398 1934.948853,117.218742 1938.712891,119.955467 
	C1953.724731,130.870270 1968.600098,141.972809 1984.066895,153.478683 
M570.621460,83.828934 
	C566.620789,82.678558 562.620117,81.528183 558.671814,80.392876 
	C547.477234,114.945518 518.649780,189.701248 515.844055,191.337585 
	C501.259338,155.141891 486.640747,118.985443 472.190369,82.761917 
	C471.054108,79.913551 469.924347,79.561005 467.436951,80.771355 
	C462.523102,83.162392 457.620605,85.610626 452.559967,87.655594 
	C448.425110,89.326485 448.216034,91.950066 449.713837,95.474335 
	C452.617126,102.305565 455.516541,109.138939 458.347260,116.000443 
	C473.180206,151.954788 487.958588,187.931778 502.929230,223.828659 
	C503.525574,225.258545 505.831451,226.766846 507.416687,226.853714 
	C513.727112,227.199524 520.073914,226.830078 526.394470,227.066635 
	C529.498108,227.182800 530.885071,225.775391 531.873901,223.164185 
	C547.506897,181.884354 563.187317,140.622513 578.825623,99.344696 
	C582.966003,88.416138 582.917603,88.398163 571.796875,84.358803 
	C571.642273,84.302635 571.504517,84.200165 570.621460,83.828934 
M62.011585,224.257812 
	C63.223373,225.171066 64.439919,226.871185 65.646141,226.863892 
	C71.433258,226.828934 77.219826,226.049637 83.002136,226.095520 
	C87.087311,226.127945 88.316727,224.488647 88.028320,220.720474 
	C87.586143,214.943451 87.286049,209.153961 87.020447,203.365402 
	C86.640381,195.082306 86.302177,186.796738 86.023384,178.509628 
	C85.331375,157.940384 84.638474,137.370956 84.032684,116.799065 
	C83.612122,102.516914 83.301125,88.231201 83.025261,73.945457 
	C82.973076,71.243340 81.944588,69.896690 79.170883,70.000008 
	C71.944008,70.269180 64.716034,70.508675 57.000763,70.776970 
	C57.000763,73.464653 56.945404,75.260345 57.009308,77.051781 
	C57.659878,95.289200 58.333252,113.525803 58.993042,131.762894 
	C59.334980,141.214401 59.685234,150.665665 59.991852,160.118332 
	C60.675289,181.188095 61.333672,202.258682 62.011585,224.257812 
M327.000000,175.500000 
	C327.000000,192.234329 327.000000,208.968658 327.000000,225.660782 
	C335.742188,225.660782 343.653198,225.660782 351.589752,225.660782 
	C351.589752,177.987061 351.589752,130.653732 351.589752,83.347511 
	C343.266449,83.347511 335.357880,83.347511 327.000000,83.347511 
	C327.000000,113.961800 327.000000,144.230896 327.000000,175.500000 
M355.498474,29.178684 
	C355.104706,28.882244 354.714539,28.332130 354.316711,28.326525 
	C344.838562,28.192932 335.358551,28.035999 325.882355,28.157152 
	C324.922943,28.169420 323.183258,29.905621 323.162598,30.870861 
	C322.957489,40.450588 323.038361,50.036442 323.038361,59.677521 
	C334.354279,59.677521 344.923218,59.677521 355.871246,59.677521 
	C355.871246,49.579643 355.871246,39.797504 355.498474,29.178684 
z"/>
<path fill="#A3DCEC" opacity="1.000000" stroke="none" 
	d="
M1188.050293,208.031906 
	C1170.106689,210.385757 1152.598511,212.635712 1135.117188,215.076508 
	C1119.768433,217.219513 1104.460571,219.653412 1089.113525,221.809143 
	C1080.324097,223.043762 1071.492798,223.979813 1062.545044,225.066727 
	C1062.281982,224.045761 1062.000488,223.432159 1061.981934,222.810699 
	C1061.636353,211.195526 1061.521118,199.569641 1060.953003,187.965836 
	C1060.144897,171.458542 1058.934326,154.971359 1058.041626,138.467667 
	C1057.540039,129.194336 1057.309570,119.905861 1056.997314,110.622849 
	C1056.634888,99.841019 1056.430542,89.052620 1055.949097,78.276382 
	C1055.424561,66.535255 1054.651978,54.805279 1054.011963,43.069111 
	C1053.931885,41.600380 1054.001099,40.123508 1054.001099,38.570446 
	C1059.553101,37.991005 1064.746704,37.225929 1069.966309,36.947109 
	C1084.177490,36.187962 1098.404663,35.729675 1112.616211,34.975166 
	C1130.242554,34.039360 1147.865601,33.020313 1165.478149,31.855803 
	C1177.299683,31.074183 1189.102173,29.997370 1200.909790,29.012285 
	C1205.636841,28.617916 1206.812256,30.168949 1204.941284,34.937649 
	C1197.330566,54.335854 1189.641113,73.703171 1181.982666,93.082695 
	C1178.699219,101.391647 1175.538818,109.753250 1172.020142,117.961304 
	C1171.457153,119.274536 1168.985596,120.985077 1167.931274,120.677597 
	C1160.334961,118.462227 1152.876465,115.773941 1144.707153,113.009888 
	C1147.833374,104.876648 1150.753052,97.098946 1153.809204,89.375252 
	C1157.932373,78.954956 1162.169800,68.579834 1166.337524,58.177105 
	C1167.406860,55.508358 1167.057983,54.326908 1163.598267,54.600327 
	C1151.102295,55.587856 1138.574951,56.170273 1126.070312,57.058884 
	C1111.681641,58.081398 1097.304565,59.266563 1082.029541,60.450279 
	C1082.029541,65.518974 1081.799072,70.771690 1082.081787,75.996651 
	C1082.545776,84.575996 1083.515137,93.128487 1083.955200,101.708527 
	C1084.482056,111.980530 1084.523926,122.277374 1085.049561,132.549469 
	C1085.920898,149.574951 1086.992920,166.590332 1088.020264,183.607559 
	C1088.308472,188.382355 1088.736084,193.148727 1089.145264,198.514801 
	C1098.556274,197.159775 1107.755859,195.873779 1116.942627,194.502045 
	C1126.857544,193.021606 1136.753662,191.414383 1146.670654,189.948349 
	C1156.592407,188.481613 1166.541748,187.199310 1176.456909,185.691635 
	C1186.196289,184.210678 1195.892700,182.434601 1205.651367,181.107895 
	C1206.878906,180.941010 1209.383301,182.541183 1209.575317,183.627060 
	C1210.776978,190.419556 1211.489624,197.298538 1212.430420,204.667374 
	C1204.060791,205.836655 1196.279053,206.923813 1188.050293,208.031906 
z"/>
<path fill="#A4DCEC" opacity="1.000000" stroke="none" 
	d="
M1602.000000,205.005249 
	C1601.666504,186.223221 1601.378052,167.939011 1600.983032,149.657120 
	C1600.739136,138.370956 1600.194336,127.089691 1600.081177,115.803253 
	C1600.045166,112.218414 1598.537109,110.366501 1595.298828,110.104721 
	C1581.452271,108.985367 1567.585205,108.120155 1553.741333,106.970657 
	C1549.162109,106.590424 1548.302246,108.745720 1547.940308,112.786819 
	C1546.556396,128.237213 1544.694336,143.643997 1543.165894,159.082443 
	C1541.914185,171.726135 1540.882935,184.391632 1539.713501,197.499451 
	C1543.451538,197.928284 1546.632568,198.367081 1549.827393,198.646835 
	C1562.949341,199.795807 1576.083618,200.816986 1589.185669,202.156860 
	C1590.301636,202.270996 1592.139038,204.454178 1592.062500,205.567581 
	C1591.678101,211.154099 1590.953247,216.740387 1589.884521,222.236588 
	C1589.674194,223.317413 1587.360107,224.834808 1586.123291,224.741058 
	C1571.801025,223.655319 1557.495605,222.338272 1543.193481,220.999893 
	C1533.013428,220.047256 1522.845093,218.968933 1512.258545,217.905197 
	C1512.501831,214.168961 1512.587891,210.632004 1512.987061,207.130737 
	C1514.215820,196.351318 1515.622314,185.592117 1516.845947,174.812134 
	C1517.663940,167.606415 1518.230957,160.372528 1519.011230,153.162170 
	C1520.248657,141.725952 1521.611694,130.303299 1522.841919,118.866356 
	C1523.634766,111.495926 1524.317627,104.113106 1524.987061,96.730156 
	C1525.374390,92.457024 1525.484009,88.151398 1526.071411,83.909225 
	C1526.206055,82.936813 1527.834106,81.379967 1528.702148,81.427132 
	C1534.947021,81.766441 1541.180786,82.378113 1547.402588,83.046478 
	C1552.471069,83.590942 1557.507812,84.435417 1562.577271,84.967445 
	C1572.724854,86.032410 1582.889404,86.936317 1593.038696,87.986206 
	C1597.091064,88.405403 1599.261230,87.409531 1599.075073,82.652466 
	C1598.529297,68.710403 1598.425049,54.751606 1597.959595,40.805645 
	C1597.679321,32.404343 1597.048584,24.014727 1596.541626,15.023941 
	C1604.596069,15.023941 1611.715210,14.871896 1618.813965,15.182557 
	C1619.920044,15.230962 1621.745605,17.319304 1621.855591,18.584436 
	C1622.471558,25.678123 1622.829468,32.805355 1622.968872,39.927120 
	C1623.388550,61.374630 1623.621826,82.825729 1624.016479,104.273804 
	C1624.260986,117.559494 1624.668335,130.842163 1624.999512,144.126266 
	C1625.359863,158.575668 1625.837158,173.023499 1626.038330,187.475143 
	C1626.213379,200.056458 1626.074829,212.642120 1626.074829,225.615997 
	C1618.653198,225.615997 1610.740234,225.615997 1602.000000,225.615997 
	C1602.000000,218.998764 1602.000000,212.251419 1602.000000,205.005249 
z"/>
<path fill="#A3DCEC" opacity="1.000000" stroke="none" 
	d="
M205.109192,191.306625 
	C204.714966,195.542404 204.850159,199.460419 203.829025,203.049423 
	C203.369064,204.666122 200.750900,206.383820 198.857132,206.754776 
	C190.276245,208.435684 181.600006,209.625351 172.966278,211.041702 
	C154.073715,214.141006 135.183563,217.255188 116.298286,220.398514 
	C111.579231,221.183975 106.896690,222.194672 102.170799,222.931458 
	C98.517464,223.501038 96.740250,222.300217 96.820663,218.048248 
	C96.903725,213.655319 96.230339,209.166840 95.267326,204.858887 
	C94.358780,200.794556 95.822136,198.642654 99.551491,198.039047 
	C118.702965,194.939423 137.877182,191.980637 157.040024,188.950882 
	C163.212387,187.974976 169.424286,187.154099 175.508514,185.777817 
	C177.200638,185.395065 179.548004,183.450089 179.798965,181.926086 
	C180.893082,175.281662 181.273834,168.522644 182.009766,161.815765 
	C183.247025,150.540024 184.613556,139.278305 185.817352,127.999107 
	C186.639267,120.298096 187.255692,112.575348 188.002808,104.866081 
	C188.764908,97.002052 189.731018,89.152641 190.235580,81.273003 
	C190.340790,79.629738 189.245300,76.874489 187.978241,76.335342 
	C171.688950,69.404099 155.386108,62.470520 138.835464,56.200661 
	C129.107590,52.515465 118.919624,52.732273 108.572266,54.509670 
	C98.178375,56.295059 87.584198,56.933170 77.069405,57.990620 
	C67.092461,58.993973 57.097767,59.823563 47.125347,60.867783 
	C43.643238,61.232399 41.837177,60.506088 41.876633,56.451481 
	C41.926289,51.349049 41.074745,46.235607 41.169933,41.137333 
	C41.195839,39.749985 43.088524,37.375828 44.363281,37.201546 
	C51.866989,36.175678 59.448322,35.735004 66.989998,34.964951 
	C75.672043,34.078449 84.319176,32.740894 93.018906,32.161324 
	C107.343941,31.206991 121.761818,29.610062 136.017715,30.427197 
	C144.406998,30.908062 152.645660,35.292305 160.800156,38.328876 
	C177.903946,44.697990 194.896149,51.366089 211.957321,57.850567 
	C219.207245,60.606068 219.952179,62.210251 218.934448,69.863892 
	C217.412582,81.308815 216.355698,92.814835 215.020615,104.285515 
	C213.437622,117.886299 211.680222,131.467255 210.166412,145.075485 
	C208.979340,155.746597 208.095428,166.451126 206.980576,177.130768 
	C206.501663,181.718521 205.779053,186.280838 205.109192,191.306625 
z"/>
<path fill="#A3DCEC" opacity="1.000000" stroke="none" 
	d="
M1851.046631,198.004486 
	C1851.526245,202.679535 1852.018799,206.906647 1852.578247,211.708542 
	C1843.051147,213.193695 1833.830078,214.695938 1824.588013,216.056030 
	C1812.188232,217.880798 1799.760254,219.516266 1787.366333,221.378708 
	C1773.346680,223.485428 1759.355957,225.785873 1745.340820,227.923203 
	C1742.643921,228.334503 1741.028442,227.451157 1740.888672,224.184830 
	C1740.401123,212.799927 1739.721069,201.421646 1738.977661,190.049759 
	C1738.052246,175.896606 1737.004028,161.751404 1735.985596,147.604431 
	C1735.002808,133.953537 1734.000000,120.304047 1732.986694,106.655357 
	C1732.563110,100.950523 1732.090088,95.249352 1731.612549,89.204941 
	C1768.081299,85.797592 1803.625122,82.476646 1840.199829,79.059395 
	C1839.739868,87.620659 1839.479858,94.836166 1838.925293,102.028954 
	C1838.481812,107.780403 1837.535767,113.492432 1837.065918,119.242645 
	C1835.961914,132.753159 1835.092773,146.283554 1833.877075,159.783264 
	C1833.744385,161.256241 1831.985107,163.783310 1830.953979,163.796738 
	C1812.170898,164.041046 1793.383911,163.975052 1774.300903,163.975052 
	C1774.300903,156.613998 1774.300903,149.693268 1774.300903,142.002060 
	C1780.033813,142.002060 1785.792114,142.002060 1791.550293,142.002060 
	C1794.215942,142.002060 1796.881470,142.002060 1799.547119,142.002060 
	C1809.542236,142.002060 1809.349365,141.989334 1810.013306,131.920715 
	C1810.607666,122.910103 1811.690063,113.931679 1812.688354,103.577484 
	C1794.270996,105.409134 1776.507690,107.175743 1758.092651,109.007172 
	C1758.092651,112.425156 1757.902710,115.534927 1758.126099,118.614723 
	C1759.022339,130.971924 1760.000244,143.323761 1761.037720,155.670029 
	C1761.922485,166.196335 1762.984985,176.707809 1763.849854,187.235626 
	C1764.108154,190.380020 1763.900635,193.559875 1764.024414,196.718872 
	C1764.165649,200.318237 1764.740723,202.361740 1769.694702,201.392944 
	C1783.072632,198.776840 1796.619141,197.018173 1810.104370,194.956512 
	C1821.316040,193.242447 1832.543823,191.633698 1843.748535,189.875839 
	C1849.921387,188.907394 1850.718140,189.662857 1851.046631,198.004486 
z"/>
<path fill="#A4DCEC" opacity="1.000000" stroke="none" 
	d="
M1328.880859,85.001587 
	C1342.270142,85.001564 1355.179932,85.130852 1368.086060,84.967072 
	C1382.527466,84.783821 1396.964478,84.288284 1411.405273,84.026184 
	C1416.696533,83.930153 1416.960083,85.008492 1416.492920,90.291588 
	C1415.632568,100.020134 1415.477539,109.810417 1414.999512,119.573547 
	C1414.003174,139.920410 1413.009521,160.267456 1411.971802,180.612213 
	C1411.356445,192.679672 1410.566284,204.738846 1410.035034,216.809662 
	C1409.730957,223.721115 1409.571899,223.841431 1402.682129,224.064758 
	C1385.871582,224.609650 1369.063110,225.263580 1352.262573,226.056335 
	C1342.397827,226.521820 1332.549927,227.341339 1322.693970,227.992706 
	C1319.872192,228.179199 1318.326416,227.573563 1317.848633,224.052612 
	C1315.445557,206.345474 1312.685181,188.685867 1309.948364,171.025330 
	C1307.739380,156.770233 1305.492065,142.519165 1303.033813,128.305740 
	C1302.256348,123.810226 1305.021118,122.703812 1308.202515,122.097153 
	C1313.039795,121.174774 1317.955688,120.668968 1322.834961,119.963257 
	C1326.161011,119.482193 1327.516479,121.766731 1327.897827,124.263573 
	C1329.436523,134.337082 1330.645264,144.460480 1332.056152,154.554199 
	C1333.467285,164.650299 1334.956299,174.735641 1336.446777,184.820435 
	C1337.358521,190.990204 1338.337402,197.150070 1339.386108,203.963547 
	C1348.369751,203.963547 1357.309082,203.959732 1366.248535,203.965179 
	C1370.703979,203.967880 1375.159546,203.977371 1379.614990,204.002441 
	C1383.831299,204.026169 1386.030396,202.820648 1386.110474,197.733231 
	C1386.342285,182.997116 1387.241211,168.270615 1387.932739,153.542892 
	C1388.584595,139.656784 1389.276489,125.772346 1390.013794,111.890518 
	C1390.239990,107.632919 1389.765503,105.322617 1384.215210,106.734467 
	C1379.871094,107.839493 1375.027466,106.935051 1370.406982,107.005974 
	C1349.341431,107.329346 1328.276245,107.684868 1307.210815,108.019379 
	C1305.070435,108.053368 1302.928955,108.023941 1300.395386,108.023941 
	C1300.395386,100.262604 1300.395386,92.900284 1300.395386,85.001587 
	C1309.846069,85.001587 1319.122925,85.001587 1328.880859,85.001587 
z"/>
<path fill="#A4DCEC" opacity="1.000000" stroke="none" 
	d="
M700.056274,154.039581 
	C702.442749,170.741898 704.839539,186.997192 707.243347,203.300690 
	C722.691345,203.300690 738.002075,203.300690 753.433899,203.300690 
	C753.999390,197.393005 754.720032,192.171616 754.954895,186.928482 
	C755.437439,176.156418 755.518066,165.366058 756.023682,154.595413 
	C756.722046,139.718704 757.713501,124.855606 758.369568,109.977432 
	C758.411316,109.030113 756.639771,107.135094 755.722656,107.141869 
	C738.654114,107.267838 721.588074,107.679512 704.519775,107.894226 
	C693.405090,108.034042 682.286255,108.038315 671.173889,107.840958 
	C670.106995,107.822006 668.216553,105.979622 668.165710,104.914177 
	C667.874573,98.813309 668.024170,92.691399 668.024170,86.470566 
	C674.124084,85.939751 679.687805,85.081848 685.257935,85.037918 
	C705.492615,84.878334 725.730286,85.106499 745.965149,84.956764 
	C757.409851,84.872086 768.854248,84.413887 780.292175,83.956596 
	C783.915405,83.811737 785.109863,85.564240 784.876526,88.739441 
	C784.307861,96.476723 783.435974,104.196739 783.056396,111.941864 
	C782.245117,128.495483 781.759094,145.064911 780.971375,161.619843 
	C780.074585,180.470184 779.017883,199.313126 777.955688,218.155060 
	C777.854980,219.941406 777.220398,221.697647 776.748169,223.859299 
	C768.704529,224.240219 760.681091,224.676620 752.652832,224.988953 
	C734.514099,225.694565 716.373169,226.342789 698.232788,227.004944 
	C694.496765,227.141312 689.636108,228.698929 687.340942,226.936111 
	C685.083008,225.201889 685.242981,220.109207 684.662476,216.439514 
	C682.690308,203.973053 680.868958,191.482773 678.972229,179.004288 
	C677.444641,168.954147 675.879333,158.909744 674.353577,148.859329 
	C673.221252,141.400513 671.855469,133.957382 671.264954,126.454437 
	C671.159973,125.120010 674.173645,122.570374 676.042114,122.237740 
	C681.050537,121.346107 686.224609,121.418159 691.321960,120.980331 
	C694.948425,120.668846 695.737854,122.766495 696.131287,125.781151 
	C697.342773,135.064697 698.740967,144.323898 700.056274,154.039581 
z"/>
<path fill="#A3DBEC" opacity="1.000000" stroke="none" 
	d="
M1983.796387,153.242249 
	C1968.600098,141.972809 1953.724731,130.870270 1938.712891,119.955467 
	C1934.948853,117.218742 1933.964966,114.359398 1936.254395,110.225899 
	C1937.687622,107.638329 1939.328003,104.928436 1939.799561,102.094376 
	C1940.808472,96.030945 1945.410889,95.743958 1949.840332,94.944786 
	C1963.860718,92.415237 1977.882324,89.893097 1991.913330,87.423576 
	C2007.568237,84.668251 2023.233765,81.973686 2039.634399,79.124153 
	C2040.748901,86.626755 2041.895630,93.195854 2042.510132,99.814392 
	C2042.595215,100.729691 2040.168335,102.573830 2038.701416,102.830986 
	C2022.306396,105.705070 2005.865479,108.316017 1989.450562,111.079437 
	C1983.772339,112.035355 1978.132324,113.217964 1971.226196,114.535179 
	C1972.951538,116.658340 1973.916992,118.544373 1975.450073,119.626755 
	C1994.001343,132.725128 2012.503784,145.901840 2031.341064,158.579697 
	C2036.142944,161.811462 2037.746094,165.883774 2037.942749,170.931412 
	C2038.453613,184.043427 2038.618286,197.169022 2039.142822,210.280334 
	C2039.306763,214.380600 2037.638550,215.642197 2033.742188,216.168243 
	C2013.332275,218.923767 1992.964233,221.989197 1972.576538,224.910843 
	C1962.947754,226.290695 1953.316284,227.664536 1943.659058,228.814621 
	C1942.647827,228.935028 1940.638794,227.667465 1940.476685,226.788589 
	C1939.438232,221.159439 1938.554688,215.473480 1938.196655,209.770004 
	C1938.121582,208.575638 1940.310669,206.309814 1941.694824,206.098328 
	C1954.192749,204.188507 1966.755005,202.705566 1979.276001,200.938995 
	C1990.753174,199.319702 2002.202515,197.504288 2013.993286,195.725662 
	C2013.993286,189.250778 2014.147339,183.272446 2013.878906,177.313141 
	C2013.816406,175.925140 2012.620239,174.194031 2011.432251,173.313492 
	C2002.382202,166.605103 1993.204712,160.068649 1983.796387,153.242249 
z"/>
<path fill="#A3DCEC" opacity="1.000000" stroke="none" 
	d="
M570.990173,83.974121 
	C571.504517,84.200165 571.642273,84.302635 571.796875,84.358803 
	C582.917603,88.398163 582.966003,88.416138 578.825623,99.344696 
	C563.187317,140.622513 547.506897,181.884354 531.873901,223.164185 
	C530.885071,225.775391 529.498108,227.182800 526.394470,227.066635 
	C520.073914,226.830078 513.727112,227.199524 507.416687,226.853714 
	C505.831451,226.766846 503.525574,225.258545 502.929230,223.828659 
	C487.958588,187.931778 473.180206,151.954788 458.347260,116.000443 
	C455.516541,109.138939 452.617126,102.305565 449.713837,95.474335 
	C448.216034,91.950066 448.425110,89.326485 452.559967,87.655594 
	C457.620605,85.610626 462.523102,83.162392 467.436951,80.771355 
	C469.924347,79.561005 471.054108,79.913551 472.190369,82.761917 
	C486.640747,118.985443 501.259338,155.141891 515.844055,191.337585 
	C518.649780,189.701248 547.477234,114.945518 558.671814,80.392876 
	C562.620117,81.528183 566.620789,82.678558 570.990173,83.974121 
z"/>
<path fill="#A4DDED" opacity="1.000000" stroke="none" 
	d="
M62.006924,223.793365 
	C61.333672,202.258682 60.675289,181.188095 59.991852,160.118332 
	C59.685234,150.665665 59.334980,141.214401 58.993042,131.762894 
	C58.333252,113.525803 57.659878,95.289200 57.009308,77.051781 
	C56.945404,75.260345 57.000763,73.464653 57.000763,70.776970 
	C64.716034,70.508675 71.944008,70.269180 79.170883,70.000008 
	C81.944588,69.896690 82.973076,71.243340 83.025261,73.945457 
	C83.301125,88.231201 83.612122,102.516914 84.032684,116.799065 
	C84.638474,137.370956 85.331375,157.940384 86.023384,178.509628 
	C86.302177,186.796738 86.640381,195.082306 87.020447,203.365402 
	C87.286049,209.153961 87.586143,214.943451 88.028320,220.720474 
	C88.316727,224.488647 87.087311,226.127945 83.002136,226.095520 
	C77.219826,226.049637 71.433258,226.828934 65.646141,226.863892 
	C64.439919,226.871185 63.223373,225.171066 62.006924,223.793365 
z"/>
<path fill="#A4DDED" opacity="1.000000" stroke="none" 
	d="
M327.000000,175.000000 
	C327.000000,144.230896 327.000000,113.961800 327.000000,83.347511 
	C335.357880,83.347511 343.266449,83.347511 351.589752,83.347511 
	C351.589752,130.653732 351.589752,177.987061 351.589752,225.660782 
	C343.653198,225.660782 335.742188,225.660782 327.000000,225.660782 
	C327.000000,208.968658 327.000000,192.234329 327.000000,175.000000 
z"/>
<path fill="#A4DDED" opacity="1.000000" stroke="none" 
	d="
M355.684875,29.597023 
	C355.871246,39.797504 355.871246,49.579643 355.871246,59.677521 
	C344.923218,59.677521 334.354279,59.677521 323.038361,59.677521 
	C323.038361,50.036442 322.957489,40.450588 323.162598,30.870861 
	C323.183258,29.905621 324.922943,28.169420 325.882355,28.157152 
	C335.358551,28.035999 344.838562,28.192932 354.316711,28.326525 
	C354.714539,28.332130 355.104706,28.882244 355.684875,29.597023 
z"/>
</svg>