<svg version="1.1" id="Layer_1" xmlns="http://www.w3.org/2000/svg" xmlns:xlink="http://www.w3.org/1999/xlink" x="0px" y="0px"
	 width="100%" viewBox="0 0 2712 2056" enable-background="new 0 0 2712 2056" xml:space="preserve">
<path fill="#000000" opacity="1.000000" stroke="none" 
	d="
M1954.000000,2058.000000 
	C1302.666626,2058.000000 652.333313,2058.000000 2.000000,2058.000000 
	C2.000000,1372.666626 2.000000,687.333313 2.000000,2.000000 
	C906.000000,2.000000 1810.000000,2.000000 2714.000000,2.000000 
	C2714.000000,687.333313 2714.000000,1372.666626 2714.000000,2058.000000 
	C2461.000000,2058.000000 2208.000000,2058.000000 1954.000000,2058.000000 
M916.300903,1452.771118 
	C915.464905,1447.198730 914.806030,1441.592896 913.761597,1436.059814 
	C909.726074,1414.682251 903.118469,1394.388794 890.918396,1375.970947 
	C862.919067,1333.701782 826.668030,1298.953003 790.453491,1264.112305 
	C770.092712,1244.523804 749.286560,1225.349243 729.752380,1204.961670 
	C694.872803,1168.558350 668.617615,1126.280762 648.812256,1080.037231 
	C627.842957,1031.076172 615.723206,979.884705 612.428040,926.739868 
	C611.343750,909.252747 609.162598,891.790710 611.486877,874.099548 
	C613.686218,857.359131 613.685364,840.334534 615.754883,823.571106 
	C623.359253,761.973450 642.289307,703.905212 670.818787,648.819214 
	C696.612244,599.016113 729.892395,555.057556 770.748047,516.613403 
	C806.631714,482.847717 846.551392,454.923340 890.351318,432.655884 
	C964.197205,395.113251 1042.695190,374.598816 1125.417358,370.343323 
	C1174.730103,367.806488 1223.743408,370.375122 1272.218506,380.168335 
	C1364.440552,398.799591 1444.656006,439.244873 1507.899902,510.405426 
	C1526.803833,531.675598 1542.213745,555.298706 1554.974731,580.612549 
	C1570.965576,612.333557 1579.899780,646.352295 1586.121704,681.140808 
	C1594.207275,726.349854 1594.918945,772.190125 1597.727661,817.856079 
	C1598.826294,835.716858 1600.114746,853.607422 1602.406128,871.343689 
	C1605.789795,897.533936 1613.447876,922.634094 1624.987915,946.415710 
	C1645.398193,988.477173 1677.745361,1019.398560 1716.973755,1043.678101 
	C1726.575562,1049.620850 1736.715210,1054.688110 1746.418579,1060.474976 
	C1757.535156,1067.104614 1759.071899,1074.549805 1751.800171,1085.400269 
	C1749.964600,1088.139282 1747.769409,1090.700317 1745.423584,1093.024292 
	C1730.810425,1107.500366 1713.286255,1117.687500 1695.002319,1126.644653 
	C1678.128784,1134.910889 1665.739380,1147.359863 1658.903320,1164.906372 
	C1654.416138,1176.423584 1651.577271,1188.479614 1651.752441,1200.875488 
	C1652.081177,1224.142944 1652.982300,1247.402222 1653.639282,1270.665161 
	C1654.315186,1294.594238 1655.508179,1318.524536 1655.460571,1342.452271 
	C1655.431641,1357.022705 1653.247314,1371.543457 1647.761719,1385.303589 
	C1641.693359,1400.525146 1631.452271,1411.488159 1614.835327,1414.062256 
	C1601.451416,1416.135620 1587.814941,1417.366211 1574.275146,1417.508057 
	C1519.295532,1418.084473 1464.310059,1418.097900 1409.326660,1418.315063 
	C1404.660034,1418.333496 1399.993164,1418.357544 1395.326782,1418.320435 
	C1378.828247,1418.188843 1366.327637,1424.337891 1357.069702,1438.843018 
	C1338.951416,1467.229980 1327.192505,1498.132202 1318.498291,1530.332520 
	C1307.898071,1569.592773 1302.807861,1609.716309 1301.764160,1650.318237 
	C1301.340454,1666.804199 1304.748657,1682.723511 1312.492065,1697.437012 
	C1316.963745,1705.933716 1323.171387,1712.584229 1333.118896,1714.887085 
	C1346.894775,1718.076050 1357.277710,1710.062378 1357.746948,1696.338379 
	C1358.859619,1663.808105 1359.874512,1631.262573 1361.819580,1598.776611 
	C1363.265137,1574.630371 1365.940674,1550.550781 1368.379395,1526.473022 
	C1370.494141,1505.593384 1379.781372,1489.004761 1399.212646,1479.606201 
	C1407.230469,1475.728149 1415.690308,1472.367798 1424.308228,1470.198364 
	C1455.292725,1462.397827 1487.017700,1463.237061 1518.493896,1464.681396 
	C1549.021362,1466.081909 1579.488892,1469.234375 1610.085938,1468.236816 
	C1630.190063,1467.581665 1648.424438,1461.114990 1664.358154,1448.410278 
	C1681.120361,1435.044922 1690.944580,1417.212769 1698.010742,1397.531250 
	C1707.895264,1369.999512 1710.482910,1341.180908 1711.421509,1312.331055 
	C1712.101074,1291.441772 1710.543701,1270.474243 1709.829346,1249.546753 
	C1709.228394,1231.949219 1708.318604,1214.362183 1707.709961,1196.764893 
	C1707.325317,1185.640381 1712.682251,1177.720703 1722.304565,1172.635010 
	C1726.705811,1170.308960 1731.330078,1168.386475 1735.920410,1166.439087 
	C1772.389771,1150.967529 1796.001587,1124.640991 1804.678101,1085.516235 
	C1808.561768,1068.004028 1807.404053,1051.658081 1793.987427,1038.258911 
	C1784.358521,1028.642578 1774.750977,1018.906616 1764.289062,1010.244446 
	C1746.370605,995.408264 1727.732666,981.443970 1709.503540,966.978882 
	C1687.001221,949.122986 1673.132324,925.541992 1666.367554,898.054382 
	C1662.821045,883.643250 1661.383911,868.670715 1659.589600,853.879456 
	C1655.640137,821.323303 1652.042480,788.724304 1648.350952,756.137146 
	C1644.918701,725.839478 1642.420044,695.405273 1637.938477,665.264954 
	C1632.130005,626.201538 1619.211304,589.103516 1601.177856,554.057007 
	C1579.872803,512.652161 1552.061523,476.037140 1517.851685,444.168091 
	C1481.196899,410.021515 1439.899536,383.105896 1394.550903,362.263458 
	C1329.101074,332.182465 1259.917114,317.508362 1188.260620,314.581299 
	C1163.390625,313.565399 1138.369019,314.848755 1113.475220,316.178192 
	C1080.964478,317.914398 1048.882935,323.189209 1017.085693,330.230469 
	C965.904602,341.564087 916.674622,358.597198 869.813232,381.978577 
	C824.715088,404.480164 782.723389,431.841003 744.783936,465.287750 
	C710.662659,495.368347 680.188293,528.592285 655.066101,566.574219 
	C623.632324,614.098694 601.297485,665.778381 585.024475,720.244995 
	C571.684753,764.893677 561.750366,810.272766 558.612793,856.772217 
	C556.712708,884.931824 556.769897,913.228821 559.394897,941.515808 
	C561.731201,966.691772 565.414856,991.527771 571.158569,1016.130127 
	C588.837341,1091.854370 621.959290,1160.142456 671.173218,1220.216553 
	C690.311829,1243.578613 711.888062,1264.956543 732.568787,1287.037231 
	C744.175659,1299.429810 756.318420,1311.318481 768.049866,1323.596558 
	C793.787170,1350.533081 819.328674,1377.657227 845.151550,1404.510986 
	C851.582397,1411.198486 856.286255,1418.554443 857.549927,1427.773193 
	C858.675598,1435.985352 859.647278,1444.233032 860.267395,1452.496460 
	C861.136047,1464.072876 862.059998,1475.674438 862.165833,1487.272339 
	C862.363403,1508.924683 862.179199,1530.585571 861.806030,1552.236816 
	C861.301086,1581.535400 861.399414,1610.692871 869.502380,1639.273682 
	C881.280701,1680.818237 906.720459,1709.060181 948.361816,1722.001465 
	C964.646545,1727.062378 981.453735,1729.087158 998.366821,1729.926636 
	C1029.692749,1731.481445 1060.877441,1730.713501 1091.279663,1721.648071 
	C1123.880615,1711.927124 1151.190308,1694.687378 1170.229126,1665.794312 
	C1185.870972,1642.056519 1192.653076,1615.393311 1193.450806,1587.520508 
	C1194.575195,1548.234253 1194.103760,1508.902832 1194.348267,1469.590820 
	C1194.776855,1400.649902 1195.320557,1331.709351 1195.536865,1262.767822 
	C1195.558716,1255.840576 1197.584839,1251.441284 1203.985107,1248.656372 
	C1209.146606,1246.410400 1213.933960,1243.320068 1218.968262,1240.763794 
	C1266.434814,1216.662231 1313.921387,1192.599976 1361.390503,1168.503540 
	C1364.056152,1167.150391 1366.580078,1165.519287 1369.237305,1164.148071 
	C1375.172119,1161.085449 1377.700073,1155.918335 1378.218628,1149.591431 
	C1378.463135,1146.609863 1378.339722,1143.595947 1378.339966,1140.596680 
	C1378.345825,1089.263672 1378.478027,1037.930054 1378.213379,986.598450 
	C1378.169800,978.135193 1380.840942,971.956238 1387.626221,967.031189 
	C1391.365479,964.317017 1394.790405,961.020569 1397.845215,957.537720 
	C1414.133179,938.967346 1424.651855,918.118652 1417.671143,892.837830 
	C1410.176636,865.695740 1394.551880,846.031433 1364.539307,841.457153 
	C1344.907349,838.465027 1327.540283,844.067505 1312.141724,855.421814 
	C1282.589111,877.212952 1276.182739,910.706177 1293.817139,940.965576 
	C1299.917358,951.432922 1308.136108,960.056519 1316.953613,968.241455 
	C1319.223755,970.348694 1321.520630,973.287537 1322.092651,976.182678 
	C1323.238892,981.985474 1323.383789,988.014465 1323.622070,993.962891 
	C1324.379883,1012.888062 1325.000854,1031.818726 1325.653931,1050.748047 
	C1325.917847,1058.397827 1326.014648,1066.055054 1326.386719,1073.699219 
	C1327.193359,1090.269287 1328.128296,1106.833130 1328.997803,1123.157104 
	C1326.465332,1124.659424 1324.815186,1125.769165 1323.055176,1126.662842 
	C1299.618774,1138.561035 1276.176147,1150.446899 1252.715698,1162.297607 
	C1238.473999,1169.491699 1224.325195,1176.888062 1209.895020,1183.684692 
	C1199.818970,1188.430786 1194.333374,1184.880005 1194.426636,1173.952759 
	C1194.514282,1163.679810 1195.676758,1153.411743 1195.655640,1143.143188 
	C1195.631836,1131.539429 1194.453613,1119.938843 1194.402466,1108.334229 
	C1194.067505,1032.353149 1193.765381,956.371338 1193.727905,880.389709 
	C1193.702393,828.408264 1194.123291,776.426575 1194.342529,724.445007 
	C1194.353882,721.778442 1194.170532,719.097839 1194.378784,716.447510 
	C1195.240479,705.482849 1195.895752,694.339722 1206.256470,687.296875 
	C1214.801758,681.488098 1220.201782,673.187744 1225.012085,664.375488 
	C1233.607056,648.630005 1237.046631,631.834961 1233.175415,614.257690 
	C1225.292114,578.462219 1189.508911,557.179199 1157.437866,563.666748 
	C1136.197021,567.963623 1104.059082,588.178955 1101.066406,618.489563 
	C1099.811279,631.201294 1102.173584,642.865540 1105.518921,654.640625 
	C1107.927002,663.116333 1113.327393,669.523987 1119.748657,675.687378 
	C1137.474243,692.700989 1142.006592,692.346313 1141.617676,722.803528 
	C1141.384155,741.085571 1140.667358,759.360901 1140.352783,777.642517 
	C1140.009155,797.622253 1139.661499,817.606079 1139.695679,837.587463 
	C1139.815308,907.569946 1140.086182,977.552185 1140.359009,1047.534302 
	C1140.371948,1050.825684 1141.083374,1054.108521 1141.249512,1057.406494 
	C1141.775879,1067.861328 1142.162598,1078.319946 1140.955200,1089.983398 
	C1136.244873,1087.718384 1132.964600,1086.219238 1129.753296,1084.584717 
	C1095.959106,1067.384399 1062.260986,1049.991821 1028.336060,1033.053711 
	C1018.538635,1028.162109 1013.832581,1021.222839 1014.271790,1010.227905 
	C1014.987854,992.302185 1015.620239,974.357605 1015.593079,956.421936 
	C1015.560791,935.149780 1015.079834,913.867249 1014.223389,892.612122 
	C1013.792175,881.911316 1018.081909,874.575989 1026.093140,867.787964 
	C1033.861694,861.205505 1041.405518,853.738220 1046.965088,845.288940 
	C1061.366455,823.401672 1062.053345,799.885254 1049.132080,777.313354 
	C1035.914673,754.223938 1015.756592,740.160828 988.214111,740.497620 
	C965.149475,740.779785 948.116089,753.325684 934.669434,770.980530 
	C918.252441,792.535461 916.471741,815.684265 930.377563,838.920105 
	C937.145386,850.228821 945.749817,860.549500 954.373535,870.586487 
	C958.319275,875.178894 960.501160,879.228394 960.464783,885.427490 
	C960.200562,930.425598 960.243713,975.426270 960.381470,1020.425537 
	C960.411926,1030.369141 961.557007,1040.311768 961.513794,1050.252075 
	C961.489990,1055.724731 963.585754,1058.596680 968.324036,1061.024658 
	C1005.318726,1079.981323 1042.199219,1099.161011 1079.105225,1118.290283 
	C1096.231934,1127.167358 1113.264893,1136.228516 1130.487183,1144.915527 
	C1137.549438,1148.477905 1140.866943,1153.438232 1140.470215,1161.547974 
	C1140.164795,1167.786987 1141.376953,1174.085205 1141.618896,1180.368652 
	C1142.373047,1199.961426 1143.161499,1219.555542 1143.606079,1239.156616 
	C1144.051758,1258.802124 1144.213623,1278.456177 1144.294434,1298.107300 
	C1144.405518,1325.106689 1144.579590,1352.109863 1144.256836,1379.105957 
	C1143.871216,1411.371582 1143.058960,1443.632935 1142.299438,1475.893188 
	C1141.751465,1499.157593 1141.297852,1522.431274 1140.221924,1545.673950 
	C1139.363647,1564.215820 1138.609375,1582.852905 1136.071777,1601.207520 
	C1131.352295,1635.344360 1111.807251,1657.745361 1079.075195,1668.729980 
	C1048.710938,1678.919922 1017.878479,1678.905273 986.837646,1673.048218 
	C969.705200,1669.815552 953.427856,1664.056885 939.518555,1653.117432 
	C924.035217,1640.940308 914.859558,1625.457520 915.684265,1605.115967 
	C916.316650,1589.518433 917.304626,1573.928955 917.607300,1558.325684 
	C918.085327,1533.680176 918.333679,1509.025024 918.240967,1484.375732 
	C918.203674,1474.444336 917.009827,1464.517212 916.300903,1452.771118 
z"/>
<path fill="#A2DBEB" opacity="1.000000" stroke="none" 
	d="
M916.321655,1453.679688 
	C917.009827,1464.517212 918.203674,1474.444336 918.240967,1484.375732 
	C918.333679,1509.025024 918.085327,1533.680176 917.607300,1558.325684 
	C917.304626,1573.928955 916.316650,1589.518433 915.684265,1605.115967 
	C914.859558,1625.457520 924.035217,1640.940308 939.518555,1653.117432 
	C953.427856,1664.056885 969.705200,1669.815552 986.837646,1673.048218 
	C1017.878479,1678.905273 1048.710938,1678.919922 1079.075195,1668.729980 
	C1111.807251,1657.745361 1131.352295,1635.344360 1136.071777,1601.207520 
	C1138.609375,1582.852905 1139.363647,1564.215820 1140.221924,1545.673950 
	C1141.297852,1522.431274 1141.751465,1499.157593 1142.299438,1475.893188 
	C1143.058960,1443.632935 1143.871216,1411.371582 1144.256836,1379.105957 
	C1144.579590,1352.109863 1144.405518,1325.106689 1144.294434,1298.107300 
	C1144.213623,1278.456177 1144.051758,1258.802124 1143.606079,1239.156616 
	C1143.161499,1219.555542 1142.373047,1199.961426 1141.618896,1180.368652 
	C1141.376953,1174.085205 1140.164795,1167.786987 1140.470215,1161.547974 
	C1140.866943,1153.438232 1137.549438,1148.477905 1130.487183,1144.915527 
	C1113.264893,1136.228516 1096.231934,1127.167358 1079.105225,1118.290283 
	C1042.199219,1099.161011 1005.318726,1079.981323 968.324036,1061.024658 
	C963.585754,1058.596680 961.489990,1055.724731 961.513794,1050.252075 
	C961.557007,1040.311768 960.411926,1030.369141 960.381470,1020.425537 
	C960.243713,975.426270 960.200562,930.425598 960.464783,885.427490 
	C960.501160,879.228394 958.319275,875.178894 954.373535,870.586487 
	C945.749817,860.549500 937.145386,850.228821 930.377563,838.920105 
	C916.471741,815.684265 918.252441,792.535461 934.669434,770.980530 
	C948.116089,753.325684 965.149475,740.779785 988.214111,740.497620 
	C1015.756592,740.160828 1035.914673,754.223938 1049.132080,777.313354 
	C1062.053345,799.885254 1061.366455,823.401672 1046.965088,845.288940 
	C1041.405518,853.738220 1033.861694,861.205505 1026.093140,867.787964 
	C1018.081909,874.575989 1013.792175,881.911316 1014.223389,892.612122 
	C1015.079834,913.867249 1015.560791,935.149780 1015.593079,956.421936 
	C1015.620239,974.357605 1014.987854,992.302185 1014.271790,1010.227905 
	C1013.832581,1021.222839 1018.538635,1028.162109 1028.336060,1033.053711 
	C1062.260986,1049.991821 1095.959106,1067.384399 1129.753296,1084.584717 
	C1132.964600,1086.219238 1136.244873,1087.718384 1140.955200,1089.983398 
	C1142.162598,1078.319946 1141.775879,1067.861328 1141.249512,1057.406494 
	C1141.083374,1054.108521 1140.371948,1050.825684 1140.359009,1047.534302 
	C1140.086182,977.552185 1139.815308,907.569946 1139.695679,837.587463 
	C1139.661499,817.606079 1140.009155,797.622253 1140.352783,777.642517 
	C1140.667358,759.360901 1141.384155,741.085571 1141.617676,722.803528 
	C1142.006592,692.346313 1137.474243,692.700989 1119.748657,675.687378 
	C1113.327393,669.523987 1107.927002,663.116333 1105.518921,654.640625 
	C1102.173584,642.865540 1099.811279,631.201294 1101.066406,618.489563 
	C1104.059082,588.178955 1136.197021,567.963623 1157.437866,563.666748 
	C1189.508911,557.179199 1225.292114,578.462219 1233.175415,614.257690 
	C1237.046631,631.834961 1233.607056,648.630005 1225.012085,664.375488 
	C1220.201782,673.187744 1214.801758,681.488098 1206.256470,687.296875 
	C1195.895752,694.339722 1195.240479,705.482849 1194.378784,716.447510 
	C1194.170532,719.097839 1194.353882,721.778442 1194.342529,724.445007 
	C1194.123291,776.426575 1193.702393,828.408264 1193.727905,880.389709 
	C1193.765381,956.371338 1194.067505,1032.353149 1194.402466,1108.334229 
	C1194.453613,1119.938843 1195.631836,1131.539429 1195.655640,1143.143188 
	C1195.676758,1153.411743 1194.514282,1163.679810 1194.426636,1173.952759 
	C1194.333374,1184.880005 1199.818970,1188.430786 1209.895020,1183.684692 
	C1224.325195,1176.888062 1238.473999,1169.491699 1252.715698,1162.297607 
	C1276.176147,1150.446899 1299.618774,1138.561035 1323.055176,1126.662842 
	C1324.815186,1125.769165 1326.465332,1124.659424 1328.997803,1123.157104 
	C1328.128296,1106.833130 1327.193359,1090.269287 1326.386719,1073.699219 
	C1326.014648,1066.055054 1325.917847,1058.397827 1325.653931,1050.748047 
	C1325.000854,1031.818726 1324.379883,1012.888062 1323.622070,993.962891 
	C1323.383789,988.014465 1323.238892,981.985474 1322.092651,976.182678 
	C1321.520630,973.287537 1319.223755,970.348694 1316.953613,968.241455 
	C1308.136108,960.056519 1299.917358,951.432922 1293.817139,940.965576 
	C1276.182739,910.706177 1282.589111,877.212952 1312.141724,855.421814 
	C1327.540283,844.067505 1344.907349,838.465027 1364.539307,841.457153 
	C1394.551880,846.031433 1410.176636,865.695740 1417.671143,892.837830 
	C1424.651855,918.118652 1414.133179,938.967346 1397.845215,957.537720 
	C1394.790405,961.020569 1391.365479,964.317017 1387.626221,967.031189 
	C1380.840942,971.956238 1378.169800,978.135193 1378.213379,986.598450 
	C1378.478027,1037.930054 1378.345825,1089.263672 1378.339966,1140.596680 
	C1378.339722,1143.595947 1378.463135,1146.609863 1378.218628,1149.591431 
	C1377.700073,1155.918335 1375.172119,1161.085449 1369.237305,1164.148071 
	C1366.580078,1165.519287 1364.056152,1167.150391 1361.390503,1168.503540 
	C1313.921387,1192.599976 1266.434814,1216.662231 1218.968262,1240.763794 
	C1213.933960,1243.320068 1209.146606,1246.410400 1203.985107,1248.656372 
	C1197.584839,1251.441284 1195.558716,1255.840576 1195.536865,1262.767822 
	C1195.320557,1331.709351 1194.776855,1400.649902 1194.348267,1469.590820 
	C1194.103760,1508.902832 1194.575195,1548.234253 1193.450806,1587.520508 
	C1192.653076,1615.393311 1185.870972,1642.056519 1170.229126,1665.794312 
	C1151.190308,1694.687378 1123.880615,1711.927124 1091.279663,1721.648071 
	C1060.877441,1730.713501 1029.692749,1731.481445 998.366821,1729.926636 
	C981.453735,1729.087158 964.646545,1727.062378 948.361816,1722.001465 
	C906.720459,1709.060181 881.280701,1680.818237 869.502380,1639.273682 
	C861.399414,1610.692871 861.301086,1581.535400 861.806030,1552.236816 
	C862.179199,1530.585571 862.363403,1508.924683 862.165833,1487.272339 
	C862.059998,1475.674438 861.136047,1464.072876 860.267395,1452.496460 
	C859.647278,1444.233032 858.675598,1435.985352 857.549927,1427.773193 
	C856.286255,1418.554443 851.582397,1411.198486 845.151550,1404.510986 
	C819.328674,1377.657227 793.787170,1350.533081 768.049866,1323.596558 
	C756.318420,1311.318481 744.175659,1299.429810 732.568787,1287.037231 
	C711.888062,1264.956543 690.311829,1243.578613 671.173218,1220.216553 
	C621.959290,1160.142456 588.837341,1091.854370 571.158569,1016.130127 
	C565.414856,991.527771 561.731201,966.691772 559.394897,941.515808 
	C556.769897,913.228821 556.712708,884.931824 558.612793,856.772217 
	C561.750366,810.272766 571.684753,764.893677 585.024475,720.244995 
	C601.297485,665.778381 623.632324,614.098694 655.066101,566.574219 
	C680.188293,528.592285 710.662659,495.368347 744.783936,465.287750 
	C782.723389,431.841003 824.715088,404.480164 869.813232,381.978577 
	C916.674622,358.597198 965.904602,341.564087 1017.085693,330.230469 
	C1048.882935,323.189209 1080.964478,317.914398 1113.475220,316.178192 
	C1138.369019,314.848755 1163.390625,313.565399 1188.260620,314.581299 
	C1259.917114,317.508362 1329.101074,332.182465 1394.550903,362.263458 
	C1439.899536,383.105896 1481.196899,410.021515 1517.851685,444.168091 
	C1552.061523,476.037140 1579.872803,512.652161 1601.177856,554.057007 
	C1619.211304,589.103516 1632.130005,626.201538 1637.938477,665.264954 
	C1642.420044,695.405273 1644.918701,725.839478 1648.350952,756.137146 
	C1652.042480,788.724304 1655.640137,821.323303 1659.589600,853.879456 
	C1661.383911,868.670715 1662.821045,883.643250 1666.367554,898.054382 
	C1673.132324,925.541992 1687.001221,949.122986 1709.503540,966.978882 
	C1727.732666,981.443970 1746.370605,995.408264 1764.289062,1010.244446 
	C1774.750977,1018.906616 1784.358521,1028.642578 1793.987427,1038.258911 
	C1807.404053,1051.658081 1808.561768,1068.004028 1804.678101,1085.516235 
	C1796.001587,1124.640991 1772.389771,1150.967529 1735.920410,1166.439087 
	C1731.330078,1168.386475 1726.705811,1170.308960 1722.304565,1172.635010 
	C1712.682251,1177.720703 1707.325317,1185.640381 1707.709961,1196.764893 
	C1708.318604,1214.362183 1709.228394,1231.949219 1709.829346,1249.546753 
	C1710.543701,1270.474243 1712.101074,1291.441772 1711.421509,1312.331055 
	C1710.482910,1341.180908 1707.895264,1369.999512 1698.010742,1397.531250 
	C1690.944580,1417.212769 1681.120361,1435.044922 1664.358154,1448.410278 
	C1648.424438,1461.114990 1630.190063,1467.581665 1610.085938,1468.236816 
	C1579.488892,1469.234375 1549.021362,1466.081909 1518.493896,1464.681396 
	C1487.017700,1463.237061 1455.292725,1462.397827 1424.308228,1470.198364 
	C1415.690308,1472.367798 1407.230469,1475.728149 1399.212646,1479.606201 
	C1379.781372,1489.004761 1370.494141,1505.593384 1368.379395,1526.473022 
	C1365.940674,1550.550781 1363.265137,1574.630371 1361.819580,1598.776611 
	C1359.874512,1631.262573 1358.859619,1663.808105 1357.746948,1696.338379 
	C1357.277710,1710.062378 1346.894775,1718.076050 1333.118896,1714.887085 
	C1323.171387,1712.584229 1316.963745,1705.933716 1312.492065,1697.437012 
	C1304.748657,1682.723511 1301.340454,1666.804199 1301.764160,1650.318237 
	C1302.807861,1609.716309 1307.898071,1569.592773 1318.498291,1530.332520 
	C1327.192505,1498.132202 1338.951416,1467.229980 1357.069702,1438.843018 
	C1366.327637,1424.337891 1378.828247,1418.188843 1395.326782,1418.320435 
	C1399.993164,1418.357544 1404.660034,1418.333496 1409.326660,1418.315063 
	C1464.310059,1418.097900 1519.295532,1418.084473 1574.275146,1417.508057 
	C1587.814941,1417.366211 1601.451416,1416.135620 1614.835327,1414.062256 
	C1631.452271,1411.488159 1641.693359,1400.525146 1647.761719,1385.303589 
	C1653.247314,1371.543457 1655.431641,1357.022705 1655.460571,1342.452271 
	C1655.508179,1318.524536 1654.315186,1294.594238 1653.639282,1270.665161 
	C1652.982300,1247.402222 1652.081177,1224.142944 1651.752441,1200.875488 
	C1651.577271,1188.479614 1654.416138,1176.423584 1658.903320,1164.906372 
	C1665.739380,1147.359863 1678.128784,1134.910889 1695.002319,1126.644653 
	C1713.286255,1117.687500 1730.810425,1107.500366 1745.423584,1093.024292 
	C1747.769409,1090.700317 1749.964600,1088.139282 1751.800171,1085.400269 
	C1759.071899,1074.549805 1757.535156,1067.104614 1746.418579,1060.474976 
	C1736.715210,1054.688110 1726.575562,1049.620850 1716.973755,1043.678101 
	C1677.745361,1019.398560 1645.398193,988.477173 1624.987915,946.415710 
	C1613.447876,922.634094 1605.789795,897.533936 1602.406128,871.343689 
	C1600.114746,853.607422 1598.826294,835.716858 1597.727661,817.856079 
	C1594.918945,772.190125 1594.207275,726.349854 1586.121704,681.140808 
	C1579.899780,646.352295 1570.965576,612.333557 1554.974731,580.612549 
	C1542.213745,555.298706 1526.803833,531.675598 1507.899902,510.405426 
	C1444.656006,439.244873 1364.440552,398.799591 1272.218506,380.168335 
	C1223.743408,370.375122 1174.730103,367.806488 1125.417358,370.343323 
	C1042.695190,374.598816 964.197205,395.113251 890.351318,432.655884 
	C846.551392,454.923340 806.631714,482.847717 770.748047,516.613403 
	C729.892395,555.057556 696.612244,599.016113 670.818787,648.819214 
	C642.289307,703.905212 623.359253,761.973450 615.754883,823.571106 
	C613.685364,840.334534 613.686218,857.359131 611.486877,874.099548 
	C609.162598,891.790710 611.343750,909.252747 612.428040,926.739868 
	C615.723206,979.884705 627.842957,1031.076172 648.812256,1080.037231 
	C668.617615,1126.280762 694.872803,1168.558350 729.752380,1204.961670 
	C749.286560,1225.349243 770.092712,1244.523804 790.453491,1264.112305 
	C826.668030,1298.953003 862.919067,1333.701782 890.918396,1375.970947 
	C903.118469,1394.388794 909.726074,1414.682251 913.761597,1436.059814 
	C914.806030,1441.592896 915.464905,1447.198730 916.321655,1453.679688 
M979.611572,840.000793 
	C989.917664,843.578552 999.161438,841.232605 1007.753906,835.027832 
	C1020.559875,825.780457 1024.415527,805.996460 1015.205261,793.200745 
	C1004.638794,778.520935 988.011230,774.030518 972.436707,783.724731 
	C957.995667,792.713501 953.523193,811.429810 961.787659,825.563660 
	C965.676270,832.213989 971.448792,836.349915 979.611572,840.000793 
M1361.964478,937.615662 
	C1385.320679,928.580139 1389.522095,899.528809 1370.891602,884.433167 
	C1360.896729,876.334656 1349.635864,875.252747 1338.261230,880.704224 
	C1326.070801,886.546753 1320.128174,897.517639 1320.515137,909.499207 
	C1321.168823,929.743530 1340.236084,942.969055 1361.964478,937.615662 
M1175.007324,660.356812 
	C1188.364136,656.485413 1196.718384,648.211670 1198.416870,633.964050 
	C1200.015503,620.553284 1193.167358,607.974182 1181.056885,602.289490 
	C1169.247681,596.746094 1154.121948,599.523193 1145.350464,609.278381 
	C1137.405151,618.114563 1133.753296,631.091309 1140.388916,644.310242 
	C1146.559204,656.602051 1159.909180,663.018311 1175.007324,660.356812 
z"/>
<path fill="#030404" opacity="1.000000" stroke="none" 
	d="
M978.851929,839.820007 
	C971.448792,836.349915 965.676270,832.213989 961.787659,825.563660 
	C953.523193,811.429810 957.995667,792.713501 972.436707,783.724731 
	C988.011230,774.030518 1004.638794,778.520935 1015.205261,793.200745 
	C1024.415527,805.996460 1020.559875,825.780457 1007.753906,835.027832 
	C999.161438,841.232605 989.917664,843.578552 978.851929,839.820007 
z"/>
<path fill="#030404" opacity="1.000000" stroke="none" 
	d="
M1361.201538,937.795532 
	C1340.236084,942.969055 1321.168823,929.743530 1320.515137,909.499207 
	C1320.128174,897.517639 1326.070801,886.546753 1338.261230,880.704224 
	C1349.635864,875.252747 1360.896729,876.334656 1370.891602,884.433167 
	C1389.522095,899.528809 1385.320679,928.580139 1361.201538,937.795532 
z"/>
<path fill="#030404" opacity="1.000000" stroke="none" 
	d="
M1174.220459,660.478638 
	C1159.909180,663.018311 1146.559204,656.602051 1140.388916,644.310242 
	C1133.753296,631.091309 1137.405151,618.114563 1145.350464,609.278381 
	C1154.121948,599.523193 1169.247681,596.746094 1181.056885,602.289490 
	C1193.167358,607.974182 1200.015503,620.553284 1198.416870,633.964050 
	C1196.718384,648.211670 1188.364136,656.485413 1174.220459,660.478638 
z"/>
</svg>