<?xml version="1.0" encoding="UTF-8"?>
<svg version="1.1" xmlns="http://www.w3.org/2000/svg" width="1125" height="142">
<path d="M0 0 C7.73715812 -0.07662158 15.47421689 -0.12883799 23.21166992 -0.16479492 C25.83898576 -0.17979894 28.46627691 -0.20020864 31.09350586 -0.22631836 C34.8892225 -0.26307202 38.68460544 -0.27981094 42.48046875 -0.29296875 C44.21722115 -0.31619453 44.21722115 -0.31619453 45.98905945 -0.33988953 C60.97430158 -0.34292078 75.07850596 3.16540427 86.3125 13.5 C100.53851643 28.70948702 102.53816748 48.70915404 102.08886719 68.54833984 C101.57647497 82.68417142 98.04721914 96.85831724 89 108 C88.44957031 108.68578125 87.89914062 109.3715625 87.33203125 110.078125 C76.76796163 121.88105139 62.41968927 124.76353731 47.33448792 125.6683197 C37.54042591 126.19719612 27.74229905 126.10723994 17.9375 126.0625 C15.99153763 126.05746832 14.04557398 126.0529084 12.09960938 126.04882812 C7.39970713 126.03796995 2.69986832 126.02080013 -2 126 C-0.96931648 123.20718383 -0.40497124 122.19248963 2.33612061 120.88960266 C3.22905823 120.49460068 4.12199585 120.09959869 5.04199219 119.69262695 C7.88399123 117.75055591 9.64422462 116.2624046 10.59645081 112.88360214 C11.606201 105.94416607 11.40004249 98.91226749 11.328125 91.91796875 C11.33486621 89.62021357 11.34457553 87.32246535 11.3571167 85.0247345 C11.37184652 80.21168033 11.35048622 75.40048422 11.30371094 70.58764648 C11.24682342 64.43637902 11.27947905 58.28948306 11.33943558 52.13837719 C11.37568986 47.3929644 11.36401628 42.6485763 11.33815765 37.90313148 C11.33151406 35.63665556 11.33957763 33.37008483 11.36295319 31.10371971 C12.01568991 18.61422702 12.01568991 18.61422702 7.68493652 7.36148071 C5.24448433 4.92229314 2.84302734 2.93846642 0 1 C0 0.67 0 0.34 0 0 Z M31 9 C31 44.97 31 80.94 31 118 C32.32 118 33.64 118 35 118 C35 83.68 35 49.36 35 14 C56 15 56 15 65 19 C65.495 19.99 65.495 19.99 66 21 C64.33984375 20.25130208 62.6796875 19.50260417 61.01953125 18.75390625 C53.6164441 15.99027797 47.26592751 17 39 17 C39 50 39 83 39 117 C50.15077279 117 57.15333939 116.86060055 65.25 109.5 C79.99262611 93.44691824 79.70864638 70.86155757 79.18798828 50.47216797 C78.51420069 38.02722356 74.60031648 26.12289044 66.12890625 16.828125 C55.91536645 8.05759908 43.96029577 9 31 9 Z " fill="#FFFFFF" transform="translate(748,13)"/>
<path d="M0 0 C7.73715812 -0.07662158 15.47421689 -0.12883799 23.21166992 -0.16479492 C25.83898576 -0.17979894 28.46627691 -0.20020864 31.09350586 -0.22631836 C34.8892225 -0.26307202 38.68460544 -0.27981094 42.48046875 -0.29296875 C44.21722115 -0.31619453 44.21722115 -0.31619453 45.98905945 -0.33988953 C60.97430158 -0.34292078 75.07850596 3.16540427 86.3125 13.5 C100.53851643 28.70948702 102.53816748 48.70915404 102.08886719 68.54833984 C101.57647497 82.68417142 98.04721914 96.85831724 89 108 C88.44957031 108.68578125 87.89914063 109.3715625 87.33203125 110.078125 C76.76796163 121.88105139 62.41968927 124.76353731 47.33448792 125.6683197 C37.54042591 126.19719612 27.74229905 126.10723994 17.9375 126.0625 C15.99153763 126.05746832 14.04557398 126.0529084 12.09960938 126.04882812 C7.39970713 126.03796995 2.69986832 126.02080013 -2 126 C-0.96931648 123.20718383 -0.40497124 122.19248963 2.33612061 120.88960266 C3.22905823 120.49460068 4.12199585 120.09959869 5.04199219 119.69262695 C7.88399123 117.75055591 9.64422462 116.2624046 10.59645081 112.88360214 C11.606201 105.94416607 11.40004249 98.91226749 11.328125 91.91796875 C11.33486621 89.62021357 11.34457553 87.32246535 11.3571167 85.0247345 C11.37184652 80.21168033 11.35048622 75.40048422 11.30371094 70.58764648 C11.24682342 64.43637902 11.27947905 58.28948306 11.33943558 52.13837719 C11.37568986 47.3929644 11.36401628 42.6485763 11.33815765 37.90313148 C11.33151406 35.63665556 11.33957763 33.37008483 11.36295319 31.10371971 C12.01568991 18.61422702 12.01568991 18.61422702 7.68493652 7.36148071 C5.24448433 4.92229314 2.84302734 2.93846642 0 1 C0 0.67 0 0.34 0 0 Z M31 9 C31 44.97 31 80.94 31 118 C32.32 118 33.64 118 35 118 C35 83.68 35 49.36 35 14 C56 15 56 15 65 19 C65.495 19.99 65.495 19.99 66 21 C64.33984375 20.25130208 62.6796875 19.50260417 61.01953125 18.75390625 C53.6164441 15.99027797 47.26592751 17 39 17 C39 50 39 83 39 117 C50.15077279 117 57.15333939 116.86060055 65.25 109.5 C79.99262611 93.44691824 79.70864638 70.86155757 79.18798828 50.47216797 C78.51420069 38.02722356 74.60031648 26.12289044 66.12890625 16.828125 C55.91536645 8.05759908 43.96029577 9 31 9 Z " fill="#FFFFFF" transform="translate(26,13)"/>
<path d="M0 0 C34.65 0 69.3 0 105 0 C103.14811521 3.70376958 101.02842518 7.05992283 98.75 10.5 C94.63867357 16.78301838 91.18045395 23.19008684 88 30 C87.29101562 29.42636719 86.58203125 28.85273437 85.8515625 28.26171875 C83.06551275 26.05196148 80.24134092 23.91685222 77.375 21.8125 C76.43398438 21.11769531 75.49296875 20.42289063 74.5234375 19.70703125 C70.65442053 17.08975507 67.80135846 16.87918092 63.23828125 16.90234375 C62.23063721 16.90484131 61.22299316 16.90733887 60.18481445 16.90991211 C58.90695068 16.91901611 57.62908691 16.92812012 56.3125 16.9375 C52.249375 16.958125 48.18625 16.97875 44 17 C44 28.88 44 40.76 44 53 C59.75054315 53.77815056 59.75054315 53.77815056 65.21484375 48.4375 C66.69133679 46.29071883 66.69133679 46.29071883 67.9375 44 C68.88238258 42.51972634 69.82891381 41.04050333 70.77734375 39.5625 C71.35343384 38.57443359 71.35343384 38.57443359 71.94116211 37.56640625 C73 36 73 36 75 35 C75 49.19 75 63.38 75 78 C74.34 78 73.68 78 73 78 C72.68546875 77.3503125 72.3709375 76.700625 72.046875 76.03125 C70.59686009 72.85545488 70.59686009 72.85545488 66 69 C58.74 69 51.48 69 44 69 C44 84.51 44 100.02 44 116 C64.0270338 115.82367336 64.0270338 115.82367336 81 107 C82.86797493 104.54847037 84.34889949 101.95805229 85.8125 99.25 C89.78816047 92.10591977 89.78816047 92.10591977 92 91 C92.3403125 92.02738281 92.680625 93.05476563 93.03125 94.11328125 C96.98743026 105.59300826 102.21274473 114.48734646 111 123 C111 123.66 111 124.32 111 125 C74.37 125 37.74 125 0 125 C1.30021775 121.09934676 3.7419237 119.63959215 6.9375 117.3125 C7.76411133 116.68891602 7.76411133 116.68891602 8.60742188 116.05273438 C12.73287408 113 12.73287408 113 15 113 C15 98.48 15 83.96 15 69 C11.04 70.32 7.08 71.64 3 73 C1.68 73 0.36 73 -1 73 C-1 72.01 -1 71.02 -1 70 C9.37357631 65.40774487 9.37357631 65.40774487 15 66 C15 64.68 15 63.36 15 62 C8.4238932 62.30444939 3.6973513 63.76702764 -2 67 C-3.3300563 67.67318086 -4.66255892 68.34161289 -6 69 C-3.72469762 61.72185883 -1.72310202 57.78938477 5 54 C8.47325181 52.8422494 11.36067448 52.93133348 15 53 C15.20483939 47.36077922 15.31496935 41.73003977 15.34179688 36.0871582 C15.36371201 34.17329012 15.41041219 32.25952528 15.48339844 30.34692383 C16.2030661 19.67854043 16.2030661 19.67854043 12.5592041 10.02008057 C8.81613864 6.28850799 4.54255372 3.65098814 0 1 C0 0.67 0 0.34 0 0 Z M35 9 C35 23.52 35 38.04 35 53 C36.98 53 38.96 53 41 53 C41 39.8 41 26.6 41 13 C45.434375 13.0825 49.86875 13.165 54.4375 13.25 C55.81736084 13.26579102 57.19722168 13.28158203 58.61889648 13.29785156 C67.50686014 13.54200874 73.63495852 15.08997235 81 20 C79.50225683 15.95609345 76.64906832 13.17611782 73 11 C68.03280257 9.33119393 63.76373118 8.76129684 58.53515625 8.8046875 C57.29386963 8.80968262 56.05258301 8.81467773 54.77368164 8.81982422 C53.2189917 8.83803223 51.66430176 8.85624023 50.0625 8.875 C45.091875 8.91625 40.12125 8.9575 35 9 Z M35 62 C35 80.15 35 98.3 35 117 C36.98 117 38.96 117 41 117 C41 100.17 41 83.34 41 66 C48.59 66 56.18 66 64 66 C63.34 64.68 62.68 63.36 62 62 C53.09 62 44.18 62 35 62 Z " fill="#FFFFFF" transform="translate(868,13)"/>
<path d="M0 0 C13.95694391 9.36784007 22.02791643 23.95390985 25.4296875 40.26953125 C29.03222609 62.19342017 27.53704333 85.4586462 15.125 104.3046875 C6.96300641 115.36502167 -3.28771216 121.35514659 -16.78125 123.83984375 C-33.25629834 125.7663615 -47.24809118 121.79828116 -60.1171875 111.64453125 C-73.4789416 100.30785886 -79.26107316 84.4757449 -80.875 67.3046875 C-82.02425218 46.40965563 -79.18970172 25.46135452 -64.875 9.3046875 C-49.04409352 -7.63205436 -20.04471068 -11.81984298 0 0 Z M-46.875 12.3046875 C-60.27570187 28.67943548 -60.21251065 54.75065763 -58.35913086 74.79296875 C-56.83605882 89.09936391 -53.03045345 101.15100171 -42.03515625 110.859375 C-35.3421963 115.33748564 -27.61364739 114.98803136 -19.875 114.3046875 C-12.79132924 112.59126714 -7.85507358 107.16826485 -3.875 101.3046875 C-0.27042942 94.00429138 2.01156467 86.35767326 3.125 78.3046875 C3.23585938 77.50289063 3.34671875 76.70109375 3.4609375 75.875 C5.6678993 56.25093424 5.63315319 32.78469722 -3.625 14.9296875 C-8.89690274 8.77913431 -14.02654973 3.77161552 -22.36328125 2.96875 C-32.85056815 2.86162756 -39.82291354 3.95353248 -46.875 12.3046875 Z " fill="#FFFFFF" transform="translate(701.875,16.6953125)"/>
<path d="M0 0 C13.95694391 9.36784007 22.02791643 23.95390985 25.4296875 40.26953125 C29.03222609 62.19342017 27.53704333 85.4586462 15.125 104.3046875 C6.96300641 115.36502167 -3.28771216 121.35514659 -16.78125 123.83984375 C-33.25629834 125.7663615 -47.24809118 121.79828116 -60.1171875 111.64453125 C-73.4789416 100.30785886 -79.26107316 84.4757449 -80.875 67.3046875 C-82.02425218 46.40965563 -79.18970172 25.46135452 -64.875 9.3046875 C-49.04409352 -7.63205436 -20.04471068 -11.81984298 0 0 Z M-46.875 12.3046875 C-60.27570187 28.67943548 -60.21251065 54.75065763 -58.35913086 74.79296875 C-56.83605882 89.09936391 -53.03045345 101.15100171 -42.03515625 110.859375 C-35.3421963 115.33748564 -27.61364739 114.98803136 -19.875 114.3046875 C-12.79132924 112.59126714 -7.85507358 107.16826485 -3.875 101.3046875 C-0.27042942 94.00429138 2.01156467 86.35767326 3.125 78.3046875 C3.23585938 77.50289063 3.34671875 76.70109375 3.4609375 75.875 C5.6678993 56.25093424 5.63315319 32.78469722 -3.625 14.9296875 C-8.89690274 8.77913431 -14.02654973 3.77161552 -22.36328125 2.96875 C-32.85056815 2.86162756 -39.82291354 3.95353248 -46.875 12.3046875 Z " fill="#FFFFFF" transform="translate(410.875,16.6953125)"/>
<path d="M0 0 C1.04373779 0.00322266 2.08747559 0.00644531 3.1628418 0.00976562 C10.56764903 0.14113484 17.35720087 1.169827 24.51416016 3.00073242 C31.90658559 4.8895271 38.58970402 5.992179 45.5 2.4375 C46.49 2.4375 47.48 2.4375 48.5 2.4375 C47.76584873 6.56972288 45.76870116 10.11695632 43.875 13.8125 C43.15356538 15.23693842 42.43221295 16.66141848 41.7109375 18.0859375 C41.34452148 18.80620117 40.97810547 19.52646484 40.60058594 20.26855469 C38.88458259 23.6503146 37.19274763 27.04405756 35.5 30.4375 C34.5 32.4375 33.5 34.4375 32.5 36.4375 C31.84 36.4375 31.18 36.4375 30.5 36.4375 C30.02820312 35.00857422 30.02820312 35.00857422 29.546875 33.55078125 C29.11511908 32.28367149 28.68279723 31.01675447 28.25 29.75 C27.83234375 28.50863281 27.4146875 27.26726563 26.984375 25.98828125 C24.61653409 20.32415655 21.72871787 17.22017389 16.4375 14.1875 C15.58027344 13.68734375 14.72304687 13.1871875 13.83984375 12.671875 C7.53074235 9.34353436 0.43699402 9.88889277 -6.5 10.4375 C-9.60671733 11.44113849 -11.71360129 12.66920851 -14.5 14.4375 C-15.49 14.7675 -16.48 15.0975 -17.5 15.4375 C-18.64209817 17.21978936 -18.64209817 17.21978936 -19.5 19.4375 C-19.87125 20.159375 -20.2425 20.88125 -20.625 21.625 C-22.10354994 26.37748195 -22.43040831 30.83991334 -20.73046875 35.5859375 C-16.91521949 42.6232524 -10.19869123 46.41062667 -2.69287109 48.66479492 C1.63777925 49.85853402 6.00335736 50.90592495 10.375 51.9375 C25.05792221 55.4188199 40.57393839 59.1443582 49.3984375 72.5234375 C54.80414349 81.91633089 55.08819338 93.42698983 52.7265625 103.8515625 C49.11033855 113.77694312 41.98506513 120.80611638 32.875 125.9375 C15.37565032 133.79435087 -3.23816829 129.64346988 -20.99658203 125.13037109 C-28.94329663 123.17747823 -38.03930065 121.06640791 -45.5 125.4375 C-45.17 126.4275 -44.84 127.4175 -44.5 128.4375 C-43.51 127.9425 -43.51 127.9425 -42.5 127.4375 C-32.40938486 126.85057384 -23.19878427 127.29800914 -13.5 130.4375 C-13.5 130.7675 -13.5 131.0975 -13.5 131.4375 C-26.04 131.4375 -38.58 131.4375 -51.5 131.4375 C-51.17 129.7875 -50.84 128.1375 -50.5 126.4375 C-51.59291883 124.80436158 -51.59291883 124.80436158 -53.375 123.5 C-57.08215397 120.12850383 -59.65549169 116.45557476 -62.3125 112.25 C-62.69712402 111.64357666 -63.08174805 111.03715332 -63.47802734 110.41235352 C-67.57199078 103.85676102 -67.57199078 103.85676102 -68.5 101.4375 C-68.17 100.4475 -67.84 99.4575 -67.5 98.4375 C-63.54774066 99.75491978 -63.25425799 101.25438237 -61.3125 104.875 C-57.92429659 110.92019199 -53.98582634 116.17102336 -49.5 121.4375 C-42.96250704 111.5208873 -35.87385989 100.24670172 -33.5 88.4375 C-31.6171875 89.0546875 -31.6171875 89.0546875 -29.5 90.4375 C-28.4453125 93.1953125 -28.4453125 93.1953125 -27.625 96.5625 C-25.00227206 105.74711097 -21.04875219 110.85366283 -13.13671875 116.11328125 C-6.21534668 119.58934811 0.21644192 120.97486499 7.9375 120.875 C8.76789795 120.86670166 9.5982959 120.85840332 10.45385742 120.84985352 C17.67412435 120.6510397 23.79592379 119.72827928 29.35546875 114.7890625 C33.89163262 109.8542334 35.94737512 105.39058763 35.75390625 98.5546875 C35.05708995 92.74431155 32.69649267 87.52355866 28.5 83.4375 C19.07724477 76.55498063 6.68272276 74.1097655 -4.51000977 71.61425781 C-17.83947341 68.62602556 -29.49001244 65.36214314 -37.5 53.4375 C-42.41807309 45.13512576 -41.78334789 32.51048556 -39.84375 23.33203125 C-36.59777268 14.30765465 -30.01493466 7.63417269 -21.5 3.4375 C-14.3425473 0.64753626 -7.63629772 -0.07455502 0 0 Z " fill="#FFFFFF" transform="translate(1034.5,10.5625)"/>
<path d="M0 0 C10.23 0 20.46 0 31 0 C29.56839578 2.86320843 28.10298024 5.66777105 26.56640625 8.47265625 C18.57705902 23.24803025 12.01736498 38.33520088 6 54 C5.65265808 54.90407593 5.30531616 55.80815186 4.94744873 56.73962402 C-4.15158757 80.44906259 -13.09595431 104.21676726 -22 128 C-21.01 128 -20.02 128 -19 128 C-18.54375244 126.80665039 -18.08750488 125.61330078 -17.61743164 124.38378906 C-13.35582304 113.2393591 -9.08737749 102.09757444 -4.81362915 90.95779419 C-2.36446338 84.57047821 0.07454844 78.17943671 2.50257874 71.78405762 C3.97793375 67.90190419 5.46026177 64.0224353 6.94387817 60.14343262 C7.63434994 58.33348559 8.3218739 56.52241054 9.006073 54.71008301 C12.71327548 44.89533443 16.67041828 35.26287775 21.15234375 25.7734375 C21.55167114 24.92373383 21.95099854 24.07403015 22.36242676 23.19857788 C26.15451149 15.325804 30.75088149 6.24911851 37 0 C38.66617115 -0.04063832 40.33388095 -0.042721 42 0 C41.59910156 0.6084375 41.19820312 1.216875 40.78515625 1.84375 C24.19984566 27.41747155 13.58320264 55.13139607 2.95581055 83.56738281 C2.14779321 85.72857901 1.33960885 87.88971277 0.53125 90.05078125 C0.13964188 91.09793304 -0.25196625 92.14508484 -0.65544128 93.22396851 C-2.87144223 99.11388037 -5.18190647 104.94462557 -7.65625 110.73046875 C-8.15954834 111.93131104 -8.66284668 113.13215332 -9.18139648 114.36938477 C-10.06753592 116.45824272 -10.98392987 118.53466906 -11.93774414 120.59350586 C-13.01865668 123.17502335 -13.81927469 125.20773405 -14 128 C-12.53740136 131.23930313 -10.48406193 133.49718643 -8 136 C-7.03240455 137.15899652 -6.07312745 138.32502416 -5.125 139.5 C-4.42375 140.325 -3.7225 141.15 -3 142 C-5.875 142.125 -5.875 142.125 -9 142 C-9.66 141.34 -10.32 140.68 -11 140 C-13.05907197 139.67002553 -13.05907197 139.67002553 -15.44970703 139.68115234 C-16.37051056 139.66128265 -17.29131409 139.64141296 -18.24002075 139.62094116 C-19.23589203 139.60938995 -20.23176331 139.59783875 -21.2578125 139.5859375 C-22.78509476 139.55688828 -22.78509476 139.55688828 -24.3432312 139.5272522 C-27.60373489 139.46734645 -30.86427367 139.42102701 -34.125 139.375 C-36.33204687 139.33683035 -38.53907869 139.29777923 -40.74609375 139.2578125 C-46.16392911 139.16163606 -51.58185473 139.07662101 -57 139 C-55.33455989 135.37947802 -53.59275794 133.64033447 -50.375 131.25 C-49.55773437 130.63640625 -48.74046875 130.0228125 -47.8984375 129.390625 C-47.27195313 128.93171875 -46.64546875 128.4728125 -46 128 C-47.48269796 120.46004773 -49.80621839 113.39395559 -52.3671875 106.15625 C-52.79798111 104.92527588 -53.22877472 103.69430176 -53.67262268 102.42602539 C-56.02207538 95.71597676 -58.39966109 89.01583896 -60.77368164 82.31445312 C-61.01243043 81.64034645 -61.25117922 80.96623978 -61.49716282 80.27170563 C-61.73518085 79.5996685 -61.97319887 78.92763138 -62.21842957 78.23522949 C-62.45538229 77.56616074 -62.69233501 76.89709198 -62.93646812 76.20774841 C-63.41363788 74.86114376 -63.89119847 73.51467754 -64.36915016 72.16835022 C-67.20253992 64.18531513 -69.95974728 56.18518374 -72.56640625 48.125 C-77.30594789 33.6586877 -81.2996572 22.10671172 -95 14 C-95 13.67 -95 13.34 -95 13 C-78.83 13 -62.66 13 -46 13 C-52 20 -52 20 -55.5 22.875 C-57.04742156 24.29218598 -57.04742156 24.29218598 -58 26 C-57.80703838 32.96422769 -54.27843902 40.33088617 -51.96484375 46.8125 C-51.36851891 48.50234009 -51.36851891 48.50234009 -50.76014709 50.22631836 C-49.49080596 53.81929187 -48.21420745 57.40963832 -46.9375 61 C-46.10695917 63.34879477 -45.27687734 65.6977519 -44.44726562 68.046875 C-39.02373566 83.38576408 -33.52733061 98.69824338 -28 114 C-25.84807455 110.77211183 -25.80050302 109.85259003 -26.46087646 106.18225098 C-27.64105967 101.40513446 -29.35130607 96.80030212 -31.0078125 92.171875 C-31.41152069 91.028255 -31.81522888 89.88463501 -32.23117065 88.70635986 C-33.52302666 85.05205134 -34.82401216 81.40106603 -36.125 77.75 C-36.97713289 75.34134755 -37.82870081 72.93249514 -38.6796875 70.5234375 C-39.51784028 68.15611228 -40.35637785 65.78892325 -41.1953125 63.421875 C-41.60436829 62.26699585 -42.01342407 61.1121167 -42.43487549 59.92224121 C-44.30697308 54.66108712 -46.20645287 49.41625601 -48.21386719 44.20507812 C-48.54812714 43.33054993 -48.88238708 42.45602173 -49.22677612 41.55499268 C-49.84049702 39.9597704 -50.46465448 38.36850448 -51.10159302 36.78240967 C-52.62214986 32.82463 -53.50585355 30.06065041 -52 26 C-50.15234375 23.76171875 -50.15234375 23.76171875 -47.9375 21.6875 C-47.20402344 20.99011719 -46.47054687 20.29273437 -45.71484375 19.57421875 C-45.14894531 19.05472656 -44.58304688 18.53523438 -44 18 C-43.01 18.33 -42.02 18.66 -41 19 C-42.55500981 22.81684226 -45.03595495 25.19195732 -48 28 C-45.8315642 36.53095208 -43.08212789 44.7997403 -40.1484375 53.09375 C-39.68395466 54.41593657 -39.21981935 55.73824528 -38.75601196 57.06066895 C-37.54652913 60.50635578 -36.33254207 63.95043786 -35.11749268 67.39416504 C-33.8777521 70.91027926 -32.64211838 74.42783578 -31.40625 77.9453125 C-30.01820574 81.89544814 -28.62976801 85.84544077 -27.23812866 89.79431152 C-26.82745148 90.95982544 -26.41677429 92.12533936 -25.99365234 93.32617188 C-25.63185883 94.35222534 -25.27006531 95.37827881 -24.89730835 96.4354248 C-24.25010457 98.28518219 -23.61971567 100.14085299 -23 102 C-19.66078848 94.11472624 -16.49301014 86.18536108 -13.49609375 78.1640625 C-13.09093033 77.08224701 -12.68576691 76.00043152 -12.26832581 74.88583374 C-11.41926922 72.615756 -10.57145876 70.34521183 -9.72485352 68.07421875 C-8.44254758 64.63852402 -7.1520859 61.20596436 -5.86132812 57.7734375 C5.43449535 31.82151271 5.43449535 31.82151271 3.10546875 5.05859375 C1.93172282 2.79461364 1.93172282 2.79461364 0 0 Z " fill="#FFFFFF" transform="translate(292,0)"/>
<path d="M0 0 C8.10025385 3.18400852 15.85776274 3.33058508 24.36938477 1.49023438 C23.73407249 4.48252588 22.75159431 6.89501304 21.29516602 9.58007812 C20.66843994 10.7483313 20.66843994 10.7483313 20.02905273 11.94018555 C19.5844873 12.76107666 19.13992188 13.58196777 18.68188477 14.42773438 C14.62910331 22.00546279 10.84240717 29.62652105 7.36938477 37.49023438 C6.70938477 37.49023438 6.04938477 37.49023438 5.36938477 37.49023438 C5.07805664 36.51183594 4.78672852 35.5334375 4.48657227 34.52539062 C1.15336324 23.70972106 -2.7763496 13.98170526 -12.63061523 7.49023438 C-19.18544331 4.25190364 -27.35230475 4.19985083 -34.29858398 6.29492188 C-42.84245792 10.55950611 -47.2568869 17.73971807 -50.44311523 26.49023438 C-57.99466563 50.20911756 -57.02845523 80.13014046 -45.88061523 102.36523438 C-41.46334482 109.99809962 -35.92463119 114.50577675 -27.63061523 117.49023438 C-18.23510305 118.6395325 -9.40461035 118.38180184 -1.63061523 112.49023438 C7.95958467 104.2912627 9.88805835 92.31413072 12.36938477 80.49023438 C14.34938477 80.49023438 16.32938477 80.49023438 18.36938477 80.49023438 C21.44457315 86.64061115 19.66279676 95.53250891 17.68188477 101.80273438 C13.84565624 111.9613883 8.20381742 119.71660603 -1.63061523 124.80273438 C-14.7955352 130.01902342 -30.87613993 129.5929239 -44.06811523 124.74023438 C-58.23867562 118.28396566 -68.19499717 107.82109673 -73.88452148 93.28710938 C-80.98108586 71.60461748 -81.2284849 46.76991737 -71.48608398 25.84179688 C-63.90072142 12.14023671 -53.47033022 2.01364267 -38.63061523 -3.50976562 C-25.7790331 -7.15528621 -12.12416919 -4.88605318 0 0 Z " fill="#FFFFFF" transform="translate(583.630615234375,13.509765625)"/>
<path d="M0 0 C15.84 0 31.68 0 48 0 C42 7 42 7 38.66856384 9.81071472 C35.4578994 12.99271898 35.29170893 15.80535986 35.24237061 20.20846558 C35.26237122 21.13909821 35.28237183 22.06973083 35.30297852 23.02856445 C35.30049606 24.02269852 35.29801361 25.01683258 35.29545593 26.04109192 C35.29454008 29.31593807 35.33628994 32.588736 35.37890625 35.86328125 C35.38756218 38.13916734 35.3937071 40.41506426 35.39744568 42.69096375 C35.41465996 48.67337334 35.4687749 54.65492265 35.52972412 60.63702393 C35.57340235 65.53508576 35.59088603 70.43307714 35.60699558 75.33129597 C35.62655414 81.15450806 35.65714342 86.97763884 35.69140625 92.80078125 C35.69783205 93.91845697 35.70425785 95.0361327 35.71087837 96.18767738 C35.73175571 99.33133985 35.76004715 102.47483334 35.79125977 105.6184082 C35.79709076 106.55916199 35.80292175 107.49991577 35.80892944 108.46917725 C35.44403599 112.55944568 35.44403599 112.55944568 37 116 C36.98810135 114.74656296 36.9762027 113.49312592 36.96394348 112.20170593 C36.85873942 100.35846187 36.81183215 88.51621167 36.82121754 76.67248821 C36.82418971 70.58404201 36.80700667 64.49707448 36.74291992 58.40893555 C36.68176337 52.52738945 36.67465121 46.64797964 36.70416832 40.76621437 C36.70606407 38.52841381 36.68886103 36.29050876 36.65177345 34.05301476 C36.35109273 14.67141263 36.35109273 14.67141263 42.02546978 8.4834795 C44.21748871 6.4467587 46.51695911 4.66608662 49 3 C49.99 3.33 50.98 3.66 52 4 C51.74920654 5.82023621 51.74920654 5.82023621 51 8 C49.69378049 8.98968904 48.36075583 9.94432659 47.01269531 10.8762207 C41.71930632 16.03140245 42.01189762 21.68719067 41.82384109 28.66736317 C41.7844933 31.7723318 41.78765088 34.87528729 41.796875 37.98046875 C41.78130856 40.15750933 41.76396605 42.33453786 41.74493408 44.5115509 C41.71513621 49.07035713 41.71620674 53.62792429 41.73730469 58.18676758 C41.76043811 64.00076516 41.69287716 69.80964582 41.59992599 75.62279797 C41.54068475 80.11952356 41.5375281 84.61503856 41.5499649 89.11208534 C41.54792495 91.25337138 41.52721574 93.394731 41.48671722 95.53563499 C41.08425176 109.34283043 41.08425176 109.34283043 47.39461136 121.13332844 C49.81175455 123.58359754 52.35641428 125.7966201 55 128 C55 128.33 55 128.66 55 129 C52.125 129.125 52.125 129.125 49 129 C48.01 128.01 48.01 128.01 47 127 C44.90019956 126.66983494 44.90019956 126.66983494 42.45849609 126.68115234 C41.51767181 126.66128265 40.57684753 126.64141296 39.60751343 126.62094116 C38.58976837 126.60938995 37.57202332 126.59783875 36.5234375 126.5859375 C35.48305328 126.56657135 34.44266907 126.5472052 33.37075806 126.5272522 C30.0389228 126.46734273 26.70705321 126.42102548 23.375 126.375 C21.11977637 126.3368307 18.86456748 126.2977796 16.609375 126.2578125 C11.07304725 126.16163201 5.53663115 126.07661804 0 126 C0 125.34 0 124.68 0 124 C1.55003004 122.60410053 3.16634239 121.28112981 4.8125 120 C5.70582031 119.29875 6.59914062 118.5975 7.51953125 117.875 C9.30433028 116.52586058 11.13842162 115.24105225 13 114 C13.47533646 112.1342667 13.47533646 112.1342667 13.43478394 109.95446777 C13.45480469 109.10792633 13.47482544 108.26138489 13.49545288 107.38919067 C13.50194855 106.45831635 13.50844421 105.52744202 13.51513672 104.56835938 C13.53324402 103.58926605 13.55135132 102.61017273 13.57000732 101.60140991 C13.62419844 98.34883034 13.65424898 95.09667534 13.6796875 91.84375 C13.69066593 90.73274429 13.70164436 89.62173859 13.71295547 88.47706604 C13.76972808 82.59115914 13.8075235 76.70546747 13.83056641 70.81933594 C13.85811842 64.7499909 13.95082848 58.68350397 14.05888176 52.61513519 C14.12998228 47.94118288 14.15176432 43.26790639 14.16046524 38.59346008 C14.17320117 36.35750695 14.20439217 34.12157698 14.25472641 31.88615417 C15.06549506 19.46450001 15.06549506 19.46450001 10.54156494 8.41235352 C7.97011323 5.84101923 5.1010124 3.89752135 2 2 C1.34 1.34 0.68 0.68 0 0 Z " fill="#FFFFFF" transform="translate(144,13)"/>
<path d="M0 0 C9.42589936 2.62666571 16.12899874 10.12929597 21.40234375 18.1328125 C26.21526445 26.77018119 29.72625052 36.17393256 31 46 C31.10957031 46.80695312 31.21914063 47.61390625 31.33203125 48.4453125 C33.99418607 71.09137619 30.20162612 93.69780273 16.25 112.125 C11.57161863 117.82428053 6.09763137 121.93491242 0 126 C-2.48046875 126.1953125 -2.48046875 126.1953125 -5.1875 126.125 C-6.08855469 126.10695313 -6.98960937 126.08890625 -7.91796875 126.0703125 C-8.60503906 126.04710937 -9.29210937 126.02390625 -10 126 C-7 124 -7 124 -4.328125 122.51953125 C11.40813159 113.7926986 20.00776934 101.32122136 25 84 C30.88818052 63.25264143 26.91065164 39.08035315 17.125 20.25 C12.98542811 12.9747024 8.44779035 7.98397655 1.5390625 3.26171875 C1.03117188 2.84535156 0.52328125 2.42898437 0 2 C0 1.34 0 0.68 0 0 Z " fill="#FFFFFF" transform="translate(706,16)"/>
<path d="M0 0 C9.42589936 2.62666571 16.12899874 10.12929597 21.40234375 18.1328125 C26.21526445 26.77018119 29.72625052 36.17393256 31 46 C31.10957031 46.80695312 31.21914063 47.61390625 31.33203125 48.4453125 C33.99418607 71.09137619 30.20162612 93.69780273 16.25 112.125 C11.57161863 117.82428053 6.09763137 121.93491242 0 126 C-2.48046875 126.1953125 -2.48046875 126.1953125 -5.1875 126.125 C-6.08855469 126.10695313 -6.98960937 126.08890625 -7.91796875 126.0703125 C-8.60503906 126.04710937 -9.29210937 126.02390625 -10 126 C-7 124 -7 124 -4.328125 122.51953125 C11.40813159 113.7926986 20.00776934 101.32122136 25 84 C30.88818052 63.25264143 26.91065164 39.08035315 17.125 20.25 C12.98542811 12.9747024 8.44779035 7.98397655 1.5390625 3.26171875 C1.03117187 2.84535156 0.52328125 2.42898437 0 2 C0 1.34 0 0.68 0 0 Z " fill="#FFFFFF" transform="translate(415,16)"/>
<path d="M0 0 C1.95980979 1.21391204 3.64481283 2.42993507 5.34375 3.984375 C5.90578125 4.49355469 6.4678125 5.00273437 7.046875 5.52734375 C8.34375 6.984375 8.34375 6.984375 8.34375 8.984375 C5.30217534 7.87834785 2.96222768 6.71964522 0.28125 4.859375 C-4.73377359 1.95766921 -10.0539782 2.17126232 -15.65625 2.984375 C-21.4020202 4.72057601 -24.13143468 8.21197165 -26.96875 13.359375 C-36.53038452 35.00983354 -35.76441544 64.50915456 -27.34375 86.484375 C-23.64781994 94.60438851 -19.77611077 100.08684183 -11.65625 103.984375 C-11.65625 104.974375 -11.65625 105.964375 -11.65625 106.984375 C-19.12115459 105.46092508 -23.92498403 101.79539401 -28.28125 95.546875 C-36.32114728 81.66942854 -38.04140073 65.44250124 -37.96875 49.734375 C-37.96311035 48.45892822 -37.9574707 47.18348145 -37.95166016 45.86938477 C-37.76851029 31.62993612 -36.92203114 16.1447212 -26.8515625 4.984375 C-25.17266896 3.48562026 -23.55477932 2.18937763 -21.65625 0.984375 C-21.07617188 0.61441406 -20.49609375 0.24445312 -19.8984375 -0.13671875 C-14.17988267 -2.37831254 -5.73130222 -2.19138026 0 0 Z " fill="#FFFFFF" transform="translate(571.65625,24.015625)"/>
<path d="M0 0 C2.4252588 1.66439329 4.28273071 3.00816937 6.1875 5.1875 C6.1875 5.8475 6.1875 6.5075 6.1875 7.1875 C5.5275 6.919375 4.8675 6.65125 4.1875 6.375 C3.1975 5.983125 2.2075 5.59125 1.1875 5.1875 C0.011875 4.65125 -1.16375 4.115 -2.375 3.5625 C-8.75001037 1.1915284 -15.73787855 1.21956362 -22.1875 3.25 C-31.84538611 10.37843975 -34.58220321 20.29263907 -36.40673828 31.76000977 C-37.14793011 38.02089552 -37.14043493 44.26504918 -37.125 50.5625 C-37.14111328 51.86960938 -37.15722656 53.17671875 -37.17382812 54.5234375 C-37.18236315 71.7300469 -34.14369464 86.79644519 -21.8125 99.1875 C-22.1425 99.8475 -22.4725 100.5075 -22.8125 101.1875 C-28.46466424 99.81727837 -31.631613 95.78777594 -34.8125 91.1875 C-41.06850393 79.23377071 -42.16623915 67.56288798 -42.12817383 54.3034668 C-42.12502959 52.02147878 -42.14848816 49.74081162 -42.17382812 47.45898438 C-42.24132585 32.2613116 -40.92253182 14.48140402 -29.68359375 3.015625 C-21.90819354 -2.99849671 -9.00186499 -4.41664537 0 0 Z " fill="#FFFFFF" transform="translate(690.8125,27.8125)"/>
<path d="M0 0 C2.4252588 1.66439329 4.28273071 3.00816937 6.1875 5.1875 C6.1875 5.8475 6.1875 6.5075 6.1875 7.1875 C5.5275 6.919375 4.8675 6.65125 4.1875 6.375 C3.1975 5.983125 2.2075 5.59125 1.1875 5.1875 C0.011875 4.65125 -1.16375 4.115 -2.375 3.5625 C-8.75001037 1.1915284 -15.73787855 1.21956362 -22.1875 3.25 C-31.84538611 10.37843975 -34.58220321 20.29263907 -36.40673828 31.76000977 C-37.14793011 38.02089552 -37.14043493 44.26504918 -37.125 50.5625 C-37.14111328 51.86960938 -37.15722656 53.17671875 -37.17382812 54.5234375 C-37.18236315 71.7300469 -34.14369464 86.79644519 -21.8125 99.1875 C-22.1425 99.8475 -22.4725 100.5075 -22.8125 101.1875 C-28.46466424 99.81727837 -31.631613 95.78777594 -34.8125 91.1875 C-41.06850393 79.23377071 -42.16623915 67.56288798 -42.12817383 54.3034668 C-42.12502959 52.02147878 -42.14848816 49.74081162 -42.17382812 47.45898438 C-42.24132585 32.2613116 -40.92253182 14.48140402 -29.68359375 3.015625 C-21.90819354 -2.99849671 -9.00186499 -4.41664537 0 0 Z " fill="#FFFFFF" transform="translate(399.8125,27.8125)"/>
<path d="M0 0 C8.99718058 3.80649948 13.22699991 11.04620569 17.1953125 19.56640625 C25.88400188 41.15940838 23.55265087 67.70564478 15 89 C10.33064027 99.77043952 2.18423174 108.2749124 -8 114 C-9.093125 114.61875 -10.18625 115.2375 -11.3125 115.875 C-16.55485677 117.47436308 -21.56186471 117.24109959 -27 117 C-24.04718919 115.43110516 -21.11344032 114.34620075 -17.9375 113.3125 C-4.21158067 108.34624614 4.30335262 100.31579484 10.64404297 87.36083984 C19.29241142 68.78452282 20.23158133 43.47369165 14 24 C13.7215625 23.09636719 13.443125 22.19273438 13.15625 21.26171875 C10.70625759 14.30247306 6.63382947 8.45172412 1.28515625 3.37109375 C0 2 0 2 0 0 Z " fill="#FFFFFF" transform="translate(837,25)"/>
<path d="M0 0 C8.99718058 3.80649948 13.22699991 11.04620569 17.1953125 19.56640625 C25.88400188 41.15940838 23.55265087 67.70564478 15 89 C10.33064027 99.77043952 2.18423174 108.2749124 -8 114 C-9.093125 114.61875 -10.18625 115.2375 -11.3125 115.875 C-16.55485677 117.47436308 -21.56186471 117.24109959 -27 117 C-24.04718919 115.43110516 -21.11344032 114.34620075 -17.9375 113.3125 C-4.21158067 108.34624614 4.30335262 100.31579484 10.64404297 87.36083984 C19.29241142 68.78452282 20.23158133 43.47369165 14 24 C13.7215625 23.09636719 13.443125 22.19273438 13.15625 21.26171875 C10.70625759 14.30247306 6.63382947 8.45172412 1.28515625 3.37109375 C0 2 0 2 0 0 Z " fill="#FFFFFF" transform="translate(115,25)"/>
<path d="M0 0 C2.84993155 0.97711939 4.88508039 1.90149748 7.1875 3.875 C15.72364208 10.32452957 27.18585046 11.96724514 37.39941406 14.42456055 C60.93155796 20.119385 60.93155796 20.119385 66.25 26.125 C68 29 68 29 68 32 C65.33721095 30.7350308 63.23178639 29.44266855 60.8125 27.6875 C52.67864183 22.59266576 42.42728616 20.83661752 33.203125 18.5625 C5.95919642 11.80412728 5.95919642 11.80412728 1 4 C0.3125 1.75 0.3125 1.75 0 0 Z " fill="#FFFFFF" transform="translate(1000,72)"/>
<path d="M0 0 C4.74734783 2.52119037 7.90710288 5.86065432 10.875 10.3125 C10.545 11.3025 10.215 12.2925 9.875 13.3125 C9.13894531 12.75820313 8.40289063 12.20390625 7.64453125 11.6328125 C6.66871094 10.90835938 5.69289063 10.18390625 4.6875 9.4375 C3.72457031 8.71820313 2.76164062 7.99890625 1.76953125 7.2578125 C-4.93434963 2.75237029 -11.19513846 2.49457717 -19.125 3.3125 C-21.86130357 4.31220413 -22.94876781 5.25080634 -25.125 7.3125 C-25.74375 7.869375 -26.3625 8.42625 -27 9 C-28.83488787 12.77171396 -28.96893496 16.22008524 -28.125 20.3125 C-25.81453099 24.57742236 -23.15514645 27.6257357 -19.125 30.3125 C-19.455 31.3025 -19.785 32.2925 -20.125 33.3125 C-25.69840129 30.13349684 -30.16325751 27.23598498 -33.125 21.3125 C-33.84718508 14.17352291 -33.57460235 9.05014514 -29.125 3.3125 C-21.08717755 -2.92091333 -9.45888534 -3.96250602 0 0 Z " fill="#FFFFFF" transform="translate(1050.125,24.6875)"/>
<path d="M0 0 C4.76344789 1.12081127 6.75806797 3.81473866 9.5703125 7.5390625 C13.32729414 14.0059981 14.53239228 19.87399928 14.4375 27.3125 C14.42992676 28.14628174 14.42235352 28.98006348 14.41455078 29.83911133 C14.099953 41.6548987 9.90066046 50.28997626 1.4609375 58.45703125 C-4.95631744 64.32872705 -7.4104523 66.13854109 -16 66 C-15.42378906 65.56945312 -14.84757812 65.13890625 -14.25390625 64.6953125 C-12.81786317 63.61516918 -11.38750164 62.5274005 -9.96484375 61.4296875 C-9.29582031 60.91664063 -8.62679688 60.40359375 -7.9375 59.875 C-7.26589844 59.35679687 -6.59429688 58.83859375 -5.90234375 58.3046875 C-4 57 -4 57 -1 56 C0.05489888 54.1513379 0.05489888 54.1513379 1 52 C1.96992862 50.65993149 2.94978172 49.32701082 3.9375 48 C8.67836375 40.96404817 11.34986007 31.49350157 10 23 C8.271438 15.34354458 5.8408367 8.94252107 1.171875 2.609375 C0 1 0 1 0 0 Z " fill="#FFFFFF" transform="translate(1082,76)"/>
<path d="M0 0 C1.32 0.33 2.64 0.66 4 1 C2.6462203 16.74021469 -0.70231359 31.67724248 -12.98046875 42.79296875 C-16.32871332 44.79414394 -19.16950505 44.19152475 -23 44 C-22.236875 43.401875 -21.47375 42.80375 -20.6875 42.1875 C-18.08664741 40.15995888 -18.08664741 40.15995888 -16.3125 38.25 C-15 37 -15 37 -13 37 C-12.72027344 36.41734375 -12.44054687 35.8346875 -12.15234375 35.234375 C-10.73183069 32.48002426 -9.04012265 29.96269086 -7.31640625 27.390625 C-3.92935099 21.23965223 -2.40482672 14.88822422 -1.3125 8 C-1.18294922 7.22527344 -1.05339844 6.45054688 -0.91992188 5.65234375 C-0.60609991 3.76941199 -0.30200645 1.88486295 0 0 Z " fill="#FFFFFF" transform="translate(608,98)"/>
<path d="M0 0 C0.99 0 1.98 0 3 0 C2.38358519 4.21508928 0.92564274 7.42584758 -1.0546875 11.18359375 C-1.35690216 11.76158218 -1.65911682 12.33957062 -1.9704895 12.93507385 C-2.93276167 14.77238544 -3.90361453 16.60499313 -4.875 18.4375 C-5.83721622 20.26745064 -6.79767127 22.09831848 -7.75808716 23.92921448 C-8.6326982 25.59414385 -9.51130504 27.25697236 -10.39013672 28.91967773 C-11.96304041 31.92928129 -13.49083603 34.95801119 -15 38 C-15.99 37.67 -16.98 37.34 -18 37 C-17.48674056 31.07330608 -14.9905027 26.45024551 -12.3125 21.25 C-11.86205322 20.36272217 -11.41160645 19.47544434 -10.94750977 18.5612793 C-2.95692025 2.95692025 -2.95692025 2.95692025 0 0 Z " fill="#FFFFFF" transform="translate(612,19)"/>
<path d="M0 0 C1.32 0.33 2.64 0.66 4 1 C2.88474014 6.79633468 -0.32129113 11.97591356 -2.94702148 17.2097168 C-3.93757688 19.18765352 -4.91732639 21.17069807 -5.89648438 23.15429688 C-6.52278911 24.40917799 -7.14972063 25.6637465 -7.77734375 26.91796875 C-8.34702881 28.06031982 -8.91671387 29.2026709 -9.50366211 30.37963867 C-11 33 -11 33 -13 34 C-13.66 33.67 -14.32 33.34 -15 33 C-14.37166682 28.66556602 -12.81372232 25.28112782 -10.83984375 21.38671875 C-10.53051407 20.77230423 -10.22118439 20.15788971 -9.90248108 19.52485657 C-8.91978419 17.5761644 -7.92879726 15.63182887 -6.9375 13.6875 C-6.26702497 12.3616077 -5.59709714 11.03543854 -4.92773438 9.70898438 C-3.29147782 6.46942749 -1.64776275 3.23372251 0 0 Z " fill="#FFFFFF" transform="translate(1085,16)"/>
<path d="M0 0 C0.99 0.33 1.98 0.66 3 1 C3 15.85 3 30.7 3 46 C2.01 45.67 1.02 45.34 0 45 C0 30.15 0 15.3 0 0 Z " fill="#FFFFFF" transform="translate(946,50)"/>
<path d="M0 0 C1.32 0 2.64 0 4 0 C4.27972656 0.7734375 4.55945313 1.546875 4.84765625 2.34375 C8.72441319 12.41583877 13.19321041 19.19667449 23 24 C23 24.66 23 25.32 23 26 C16.32598286 25.65774271 10.97612027 22.0789985 6.41796875 17.36328125 C2.59714378 12.41121505 0 6.29052625 0 0 Z " fill="#FFFFFF" transform="translate(1010,104)"/>
<path d="M0 0 C0.99 0.33 1.98 0.66 3 1 C1.49300536 5.28050604 -0.74697373 8.8748719 -3.25 12.625 C-7.16314984 18.58616089 -10.70623105 24.67079692 -14 31 C-14.66 30.34 -15.32 29.68 -16 29 C-15.68952977 24.45733034 -13.50567026 20.68190154 -11.375 16.75 C-11.02179687 16.0912085 -10.66859375 15.43241699 -10.3046875 14.75366211 C-7.37304459 9.41453833 -3.9953715 4.60716277 0 0 Z " fill="#FFFFFF" transform="translate(975,17)"/>
<path d="M0 0 C6.435 2.97 6.435 2.97 13 6 C13 6.33 13 6.66 13 7 C7.81960013 7.63175608 5.33121642 6.25817319 1.3203125 3.2890625 C0.88460937 2.86367187 0.44890625 2.43828125 0 2 C0 1.34 0 0.68 0 0 Z " fill="#FFFFFF" transform="translate(648,135)"/>
<path d="M0 0 C6.435 2.97 6.435 2.97 13 6 C13 6.33 13 6.66 13 7 C7.81960013 7.63175608 5.33121642 6.25817319 1.3203125 3.2890625 C0.88460938 2.86367187 0.44890625 2.43828125 0 2 C0 1.34 0 0.68 0 0 Z " fill="#FFFFFF" transform="translate(357,135)"/>
<path d="M0 0 C5.75 1.75 5.75 1.75 8 4 C4.28400809 4.20086443 3.22791555 4.1519437 0 2 C0 1.34 0 0.68 0 0 Z " fill="#FFFFFF" transform="translate(533,138)"/>
</svg>
